<?xml version="1.0" encoding="UTF-8" standalone="no"?>
<!DOCTYPE svg PUBLIC "-//W3C//DTD SVG 1.1//EN" "http://www.w3.org/Graphics/SVG/1.1/DTD/svg11.dtd">
<svg xmlns="http://www.w3.org/2000/svg" version="1.1" viewBox="0.00 0.00 564.00 1002.00">
<g stroke-width="5.00" fill="none" stroke-linecap="butt">
<path stroke="#7f7f7f" vector-effect="non-scaling-stroke" d="
  M 238.95 385.07
  Q 217.19 384.94 208.64 366.24
  C 207.09 362.85 204.81 360.12 203.40 356.81
  C 201.78 353.01 197.92 355.24 198.12 358.25
  C 198.32 361.11 199.53 367.65 198.38 370.05
  A 1.56 1.51 -0.4 0 1 197.68 370.74
  Q 195.51 371.76 195.44 374.24
  C 195.28 380.11 194.82 387.47 198.08 392.42
  Q 202.56 399.24 208.24 405.36
  A 0.46 0.46 0.0 0 1 207.80 406.12
  L 203.14 405.10
  Q 202.49 404.96 202.26 405.58
  C 200.98 409.09 204.60 415.64 206.68 418.86
  Q 208.94 422.35 212.72 424.26
  A 1.62 1.60 -37.3 0 0 213.75 424.39
  Q 220.41 422.96 226.90 424.94
  Q 227.41 425.10 227.34 425.63
  L 226.84 429.04
  A 0.99 0.98 3.7 0 0 227.84 430.17
  Q 254.75 429.54 279.83 437.92
  C 283.53 439.16 286.39 439.49 286.84 443.29
  Q 287.19 446.17 286.26 449.16
  C 284.24 455.66 277.73 448.99 275.81 455.08
  C 274.34 459.78 272.72 463.07 268.42 465.98
  Q 259.96 471.70 255.99 472.98
  C 250.13 474.88 243.69 471.26 239.47 467.35
  A 0.48 0.48 0.0 0 1 239.67 466.54
  L 250.99 463.29
  A 0.69 0.68 72.4 0 0 251.44 462.41
  Q 251.22 461.78 250.30 461.75
  C 247.26 461.65 245.05 461.47 242.08 460.07
  Q 236.76 457.56 230.66 458.06
  Q 230.05 458.11 229.80 458.67
  L 228.47 461.60
  Q 228.32 461.93 227.96 461.87
  C 224.62 461.27 213.53 458.44 215.22 454.33
  Q 215.40 453.90 215.83 453.70
  Q 226.56 448.78 237.36 444.03
  Q 239.11 443.26 239.59 441.95
  Q 240.21 440.30 238.54 439.73
  Q 235.63 438.72 233.22 438.48
  Q 220.12 437.17 207.11 436.28
  A 2.02 2.02 0.0 0 1 205.26 433.93
  C 205.64 431.69 211.10 429.98 213.08 428.97
  A 0.87 0.87 0.0 0 0 213.55 428.15
  C 213.36 424.36 209.14 424.68 206.47 424.22
  A 1.28 1.24 -11.0 0 1 205.66 423.69
  Q 203.81 420.89 201.89 418.10
  Q 201.25 417.15 200.62 416.92
  Q 199.40 416.48 198.60 417.96
  A 0.74 0.70 -80.9 0 1 198.13 418.32
  L 192.95 419.49
  A 0.58 0.57 -0.2 0 0 192.51 419.92
  Q 190.29 430.05 199.00 434.89
  A 0.88 0.87 -73.6 0 1 199.45 435.72
  L 199.33 437.60
  A 0.64 0.64 0.0 0 1 198.65 438.20
  L 193.08 437.93
  A 0.97 0.97 0.0 0 0 192.44 439.67
  Q 194.86 441.53 197.94 442.84
  Q 198.47 443.06 198.75 443.45
  Q 199.28 444.20 199.08 444.47
  A 2.57 2.40 34.2 0 1 195.71 444.99
  Q 192.06 442.65 187.71 442.02
  Q 185.31 441.68 185.62 444.07
  C 185.99 447.04 187.20 449.69 186.48 452.65
  C 185.35 457.38 181.66 462.46 183.79 467.25
  C 186.06 472.35 187.87 475.38 188.32 480.82
  C 188.99 489.00 190.25 495.56 195.74 501.96
  Q 196.79 503.18 197.02 505.60
  Q 197.06 506.04 196.90 506.45
  Q 196.28 508.07 196.19 509.79
  A 0.67 0.66 -78.4 0 0 196.61 510.44
  L 198.85 511.30
  A 0.81 0.80 -82.0 0 1 199.36 511.99
  L 199.76 517.61
  A 0.71 0.71 0.0 0 0 200.51 518.27
  Q 202.01 518.17 202.96 516.92
  A 1.54 1.54 0.0 0 1 205.68 517.49
  L 207.97 527.01
  A 1.13 1.10 -85.4 0 0 208.61 527.78
  L 212.00 529.29
  A 0.88 0.88 0.0 0 1 212.51 530.04
  L 212.62 531.92
  Q 212.66 532.55 213.29 532.53
  L 216.51 532.44
  A 0.64 0.63 83.6 0 1 217.15 532.96
  C 218.91 542.94 224.03 553.82 232.95 559.35
  C 235.18 560.74 236.11 562.54 237.58 564.59
  Q 237.89 565.01 238.41 565.04
  C 242.39 565.25 248.25 556.48 244.48 554.26
  C 241.84 552.70 238.46 551.84 236.25 549.34
  C 234.19 547.02 233.37 544.62 231.80 542.06
  Q 231.19 541.08 231.68 540.29
  A 1.51 1.51 0.0 0 1 234.25 540.30
  C 238.70 547.54 246.69 544.29 252.27 540.17
  C 255.88 537.51 260.06 538.26 263.97 536.48
  Q 267.14 535.03 270.35 533.64
  C 275.40 531.45 281.29 531.03 286.26 529.73
  Q 287.68 529.35 289.21 528.09
  Q 289.61 527.75 289.53 527.23
  C 288.88 523.33 285.55 522.02 282.90 519.72
  Q 282.51 519.39 282.98 519.19
  C 291.46 515.51 290.15 527.42 296.76 528.21
  C 304.46 529.14 308.26 522.38 313.72 518.50
  C 317.24 515.99 321.25 515.41 325.42 514.78
  Q 327.46 514.48 327.99 511.45
  A 0.83 0.83 0.0 0 0 326.52 510.79
  C 323.43 514.68 319.86 513.22 316.29 514.62
  Q 312.61 516.06 309.01 519.51
  Q 307.74 520.72 305.76 519.85
  Q 305.31 519.65 305.10 519.20
  C 302.75 514.17 305.02 511.89 307.82 508.04
  C 310.42 504.48 310.34 500.40 309.96 496.24
  Q 307.92 473.58 305.15 450.95
  C 304.36 444.50 302.62 441.17 309.02 436.54
  Q 313.36 433.41 316.82 431.26
  C 324.02 426.81 329.61 422.44 335.67 417.51
  A 0.50 0.50 0.0 0 0 335.18 416.65
  C 330.12 418.50 324.71 416.83 319.74 415.61
  C 315.26 414.50 318.28 406.32 319.75 403.86
  Q 320.04 403.39 320.19 403.92
  C 320.91 406.53 320.06 410.67 322.77 411.46
  C 333.86 414.67 345.21 409.32 352.14 400.10
  Q 352.44 399.71 351.95 399.66
  Q 344.76 398.87 337.61 397.66
  C 333.35 396.94 329.97 395.29 331.21 390.38
  A 0.93 0.93 0.0 0 1 332.60 389.82
  C 337.77 392.98 345.85 395.23 351.27 392.12
  C 355.12 389.91 357.03 385.11 356.64 380.67
  Q 356.49 378.97 355.00 376.60
  Q 353.25 373.81 352.51 370.72
  A 1.23 1.22 81.5 0 0 351.25 369.78
  L 345.48 370.15
  A 1.07 1.06 84.9 0 1 344.36 369.21
  C 343.95 365.64 341.91 363.25 341.58 359.85
  C 341.22 356.22 341.22 352.29 338.00 350.52
  A 0.53 0.53 0.0 0 0 337.22 350.98
  L 337.27 357.22
  Q 337.27 357.77 336.99 358.23
  C 335.15 361.21 328.84 364.79 327.10 359.42
  C 325.40 354.18 325.60 347.96 319.41 346.12
  C 315.99 345.11 312.41 344.91 310.04 347.88
  A 1.12 1.10 -30.4 0 0 309.80 348.76
  L 311.84 362.00
  A 0.37 0.37 0.0 0 1 311.35 362.40
  Q 309.35 361.65 307.56 360.41
  C 304.81 358.49 303.79 354.72 301.48 352.78
  Q 292.06 344.88 278.32 340.67
  C 273.35 339.14 271.20 340.43 270.28 345.51
  Q 269.05 352.36 268.38 359.29
  C 268.12 361.97 267.43 363.50 265.63 365.27
  A 1.26 1.26 0.0 0 1 263.51 364.64
  C 262.41 359.41 262.16 350.19 256.59 347.71
  Q 256.06 347.48 255.58 347.79
  C 248.93 352.11 252.16 358.65 253.76 364.42
  C 254.47 366.98 254.47 369.42 254.16 371.90
  A 1.37 1.37 0.0 0 1 251.93 372.78
  C 246.11 367.96 246.22 360.41 245.35 353.56
  C 244.84 349.46 239.31 344.19 236.02 349.32
  A 2.10 2.10 0.0 0 0 235.85 351.27
  C 237.67 355.62 240.87 366.19 239.16 370.89
  Q 238.69 372.20 237.65 372.25
  A 1.18 1.17 85.3 0 1 236.43 371.21
  Q 235.15 360.65 229.49 351.56
  C 227.46 348.30 224.03 345.70 221.80 341.93
  Q 221.49 341.41 221.07 341.84
  L 219.17 343.76
  Q 218.79 344.14 218.71 344.68
  L 218.18 348.57
  Q 218.08 349.28 217.36 349.35
  L 213.80 349.71
  Q 213.28 349.76 213.31 350.28
  Q 213.81 358.17 216.84 365.30
  Q 218.92 370.21 222.85 373.82
  Q 228.53 379.03 236.01 382.41
  Q 237.58 383.12 239.10 384.72
  Q 239.43 385.07 238.95 385.07"
/>
<path stroke="#7f7f7f" vector-effect="non-scaling-stroke" d="
  M 352.04 443.48
  L 345.36 448.64
  A 0.13 0.13 0.0 0 0 345.34 448.82
  L 345.38 448.88
  A 4.19 3.34 -37.7 0 0 350.74 448.96
  L 350.99 448.76
  A 4.19 3.34 -37.7 0 0 352.26 443.56
  L 352.22 443.50
  A 0.13 0.13 0.0 0 0 352.04 443.48"
/>
<path stroke="#7f7f7f" vector-effect="non-scaling-stroke" d="
  M 343.3099 446.1700
  A 1.48 0.92 -17.7 0 0 341.6203 445.7436
  A 1.48 0.92 -17.7 0 0 340.4901 447.0700
  A 1.48 0.92 -17.7 0 0 342.1797 447.4964
  A 1.48 0.92 -17.7 0 0 343.3099 446.1700"
/>
<path stroke="#7f7f7f" vector-effect="non-scaling-stroke" d="
  M 333.36 446.13
  Q 332.12 446.34 331.83 448.16
  Q 331.76 448.59 331.97 448.97
  Q 334.50 453.57 339.92 452.45
  A 0.51 0.51 0.0 0 0 340.24 451.66
  Q 338.11 448.65 335.14 446.67
  Q 334.12 445.99 333.36 446.13"
/>
<path stroke="#7f7f7f" vector-effect="non-scaling-stroke" d="
  M 268.4913 452.7489
  A 3.72 2.27 -40.2 0 0 264.1848 453.4162
  A 3.72 2.27 -40.2 0 0 262.8087 457.5511
  A 3.72 2.27 -40.2 0 0 267.1152 456.8838
  A 3.72 2.27 -40.2 0 0 268.4913 452.7489"
/>
<path stroke="#7f7f7f" vector-effect="non-scaling-stroke" d="
  M 168.63 461.09
  L 165.29 457.25
  A 0.99 0.99 0.0 0 0 163.58 457.68
  C 163.00 460.33 163.23 463.19 164.21 465.98
  Q 167.83 476.26 170.70 486.79
  C 172.42 493.12 173.09 499.48 173.76 506.00
  C 174.41 512.24 178.24 520.55 184.16 523.52
  A 1.28 1.25 46.7 0 0 185.21 523.56
  Q 188.74 522.09 189.39 518.23
  A 0.95 0.94 -64.9 0 0 189.09 517.38
  Q 184.69 513.43 183.68 507.00
  Q 179.81 482.39 176.41 457.71
  C 176.08 455.37 174.58 453.98 172.40 453.57
  A 0.95 0.94 11.5 0 0 171.31 454.29
  L 169.82 460.79
  A 0.69 0.69 0.0 0 1 168.63 461.09"
/>
<path stroke="#7f7f7f" vector-effect="non-scaling-stroke" d="
  M 257.8623 455.9300
  A 2.25 1.28 -10.5 0 0 255.4167 455.0814
  A 2.25 1.28 -10.5 0 0 253.4377 456.7500
  A 2.25 1.28 -10.5 0 0 255.8833 457.5986
  A 2.25 1.28 -10.5 0 0 257.8623 455.9300"
/>
<path stroke="#7f7f7f" vector-effect="non-scaling-stroke" d="
  M 169.9887 510.7600
  A 3.58 0.84 89.7 0 0 170.8100 507.1756
  A 3.58 0.84 89.7 0 0 169.9513 503.6000
  A 3.58 0.84 89.7 0 0 169.1300 507.1844
  A 3.58 0.84 89.7 0 0 169.9887 510.7600"
/>
<path stroke="#7f7f7f" vector-effect="non-scaling-stroke" d="
  M 173.59 526.43
  C 172.21 524.09 173.91 521.29 173.24 518.93
  Q 172.63 516.78 170.89 515.20
  Q 170.28 514.65 170.28 515.47
  Q 170.17 524.42 175.50 531.46
  A 0.32 0.32 0.0 0 0 176.05 531.14
  Q 174.98 528.81 173.59 526.43"
/>
<path stroke="#7f7f7f" vector-effect="non-scaling-stroke" d="
  M 191.37 536.97
  A 1.96 1.96 0.0 0 0 193.91 534.96
  L 193.74 532.65
  A 1.96 1.96 0.0 0 0 192.48 530.96
  L 188.69 529.53
  A 1.96 1.96 0.0 0 0 186.05 531.16
  L 185.80 533.60
  A 1.96 1.96 0.0 0 0 187.17 535.67
  L 191.37 536.97"
/>
<path stroke="#74330a" vector-effect="non-scaling-stroke" d="
  M 194.42 556.02
  Q 194.81 555.55 195.11 555.67
  Q 202.41 558.73 203.89 566.52
  C 204.79 571.24 204.13 580.50 197.78 581.31
  Q 190.46 582.24 187.04 576.01
  C 183.90 570.27 182.79 560.39 189.41 556.36
  Q 189.71 556.18 189.85 555.95
  Q 190.06 555.60 190.05 555.37
  A 0.51 0.51 0.0 0 0 189.18 555.03
  C 181.07 562.88 178.17 573.72 185.37 583.35
  C 187.19 585.78 190.14 587.64 192.70 589.45
  A 1.11 1.08 15.2 0 1 193.16 590.23
  C 193.52 593.81 197.22 595.90 199.33 592.08
  Q 199.58 591.62 199.51 591.09
  C 199.28 589.28 199.63 588.55 201.13 587.43
  C 211.32 579.81 211.51 563.82 200.85 556.39
  Q 197.71 554.19 194.01 554.63
  Q 193.63 555.29 192.96 554.09"
/>
<path stroke="#7f7f7f" vector-effect="non-scaling-stroke" d="
  M 192.96 554.09
  Q 194.04 547.80 190.54 543.44
  Q 189.65 542.33 187.09 541.08
  C 183.59 539.37 181.22 535.79 178.05 533.59
  A 0.52 0.51 -89.5 0 0 177.33 534.30
  Q 184.18 544.59 190.74 554.49
  Q 190.92 554.77 191.36 555.00
  Q 191.72 555.20 191.68 555.61
  Q 191.50 557.56 193.44 558.02
  A 1.07 1.07 0.0 0 0 194.65 556.54
  L 194.42 556.02"
/>
<path stroke="#f3b289" vector-effect="non-scaling-stroke" d="
  M 192.96 554.09
  L 192.30 554.84
  Q 191.84 555.35 192.53 555.33
  Q 193.86 555.28 194.42 556.02"
/>
<path stroke="#7f7f7f" vector-effect="non-scaling-stroke" d="
  M 302.0110 541.0187
  A 1.16 1.16 0.0 0 0 300.8797 539.8307
  L 300.0600 539.8107
  A 1.16 1.16 0.0 0 0 298.8720 540.9420
  L 298.8090 543.5213
  A 1.16 1.16 0.0 0 0 299.9403 544.7093
  L 300.7600 544.7293
  A 1.16 1.16 0.0 0 0 301.9480 543.5980
  L 302.0110 541.0187"
/>
<path stroke="#7f7f7f" vector-effect="non-scaling-stroke" d="
  M 299.35 554.20
  L 302.85 559.94
  A 0.62 0.60 -19.6 0 0 303.48 560.23
  C 309.66 559.29 310.90 554.63 312.56 549.27
  Q 312.71 548.80 312.22 548.80
  Q 305.95 548.78 300.22 551.17
  Q 299.76 551.36 299.27 551.27
  Q 296.40 550.76 294.28 548.76
  A 1.27 1.25 -17.6 0 0 293.67 548.45
  Q 283.78 546.59 275.25 551.94
  Q 274.78 552.23 274.62 552.77
  L 273.10 557.75
  A 1.25 1.25 0.0 0 1 271.23 558.44
  L 267.02 555.76
  A 0.93 0.92 -46.2 0 0 265.99 555.79
  L 263.73 557.42
  A 0.66 0.65 52.8 0 1 262.84 557.29
  L 261.07 555.01
  A 1.07 1.07 0.0 0 0 259.38 555.02
  C 256.64 558.63 253.98 561.78 252.33 566.15
  Q 250.72 570.42 249.08 574.67
  Q 248.14 577.11 249.80 578.44
  Q 251.51 579.81 253.08 581.37
  A 1.33 1.31 19.7 0 1 253.46 582.16
  L 253.93 586.44
  A 2.50 2.49 88.2 0 0 256.29 588.67
  L 260.46 588.88
  A 0.61 0.56 68.6 0 1 260.87 589.08
  L 263.84 592.22
  A 0.73 0.73 0.0 0 0 264.87 592.25
  L 268.62 588.70
  A 1.37 1.35 22.3 0 1 269.53 588.33
  L 274.27 588.27
  Q 274.80 588.27 275.06 587.80
  C 276.80 584.65 279.22 586.38 281.56 585.67
  Q 286.64 584.13 285.39 578.13
  A 1.18 1.17 -81.2 0 0 284.83 577.36
  Q 281.63 575.49 281.29 571.76
  A 1.18 1.16 -75.2 0 0 280.80 570.91
  C 279.06 569.66 275.20 568.11 275.75 565.50
  A 1.13 1.13 0.0 0 1 277.34 564.70
  C 279.83 565.87 281.85 567.03 284.69 567.14
  C 289.26 567.33 298.74 568.26 302.49 565.66
  A 0.97 0.97 0.0 0 0 302.24 563.94
  Q 297.86 562.49 294.10 565.13
  A 1.52 1.50 -60.6 0 1 293.15 565.40
  Q 290.63 565.23 289.38 563.11
  A 0.75 0.75 0.0 0 1 289.90 561.99
  C 295.12 561.11 295.71 558.17 298.34 554.18
  A 0.60 0.60 0.0 0 1 299.35 554.20"
/>
<path stroke="#790301" vector-effect="non-scaling-stroke" d="
  M 222.97 603.90
  L 222.70 602.45
  A 1.10 1.10 0.0 0 1 224.10 601.20
  L 228.21 602.45
  A 0.39 0.39 0.0 0 0 228.62 601.82
  C 226.02 598.91 215.21 599.35 211.53 599.59
  Q 206.73 599.91 202.78 604.48
  A 1.53 1.51 12.8 0 1 202.04 604.94
  C 196.00 606.55 181.34 613.83 188.79 621.40
  Q 191.40 624.06 193.76 623.79
  Q 198.18 623.28 211.49 619.69
  Q 217.02 618.21 222.78 613.97
  C 225.67 611.84 228.70 611.93 230.22 607.76
  A 0.39 0.39 0.0 0 0 229.71 607.26
  L 228.21 607.84
  A 0.68 0.67 -22.5 0 1 227.35 607.49
  Q 226.29 605.10 223.68 604.61
  A 0.88 0.88 0.0 0 1 222.97 603.90"
/>
<path stroke="#790301" vector-effect="non-scaling-stroke" d="
  M 372.80 634.05
  Q 368.37 634.67 367.67 630.87
  Q 367.57 630.29 367.05 630.03
  C 364.34 628.65 360.67 627.70 358.55 626.79
  Q 340.49 618.98 322.63 610.73
  C 317.68 608.44 312.48 606.87 307.33 605.16
  Q 300.02 602.74 295.54 601.87
  C 285.19 599.87 261.66 597.24 254.63 608.25
  A 0.94 0.93 44.0 0 0 254.65 609.28
  Q 257.21 612.90 261.19 614.90
  Q 261.66 615.14 262.08 614.82
  L 265.16 612.44
  A 0.81 0.80 -42.5 0 1 266.18 612.48
  L 268.71 614.72
  Q 269.10 615.06 269.59 614.94
  Q 271.60 614.46 272.67 612.82
  A 0.61 0.59 42.8 0 0 272.63 612.11
  L 268.55 607.12
  A 0.40 0.40 0.0 0 1 269.01 606.49
  C 272.65 608.01 276.51 607.33 279.63 607.90
  C 289.61 609.72 296.87 612.70 305.50 615.56
  C 309.25 616.80 312.78 620.11 316.10 620.92
  Q 326.32 623.42 336.08 627.40
  Q 340.43 629.18 345.33 629.07
  A 0.52 0.51 13.0 0 1 345.80 629.82
  L 344.26 632.84
  A 0.80 0.70 59.6 0 0 344.18 633.26
  L 344.69 639.81
  A 0.91 0.91 0.0 0 1 343.66 640.78
  Q 334.78 639.56 325.76 640.06
  Q 320.21 640.36 315.83 644.72
  A 1.10 1.10 0.0 0 0 315.99 646.41
  Q 319.60 648.87 323.82 649.83
  C 325.22 650.15 326.64 649.57 326.49 647.98
  A 0.58 0.57 13.2 0 1 327.37 647.44
  C 329.64 648.84 338.58 653.70 335.16 656.96
  A 1.25 1.24 24.7 0 1 334.23 657.30
  Q 331.58 657.13 329.80 658.99
  Q 329.44 659.37 328.93 659.46
  Q 316.27 661.66 304.22 657.32
  Q 303.62 657.10 303.21 657.59
  C 300.07 661.36 305.43 663.46 303.40 667.63
  A 1.08 1.08 0.0 0 0 304.30 669.18
  C 311.24 669.62 318.72 669.94 325.33 668.11
  C 329.74 666.89 335.93 665.21 338.62 661.26
  A 0.92 0.92 0.0 0 0 338.05 659.84
  L 337.28 659.68
  A 0.48 0.47 36.7 0 1 337.15 658.80
  Q 344.92 654.49 340.27 646.61
  A 1.88 1.88 0.0 0 1 341.91 643.78
  L 344.18 643.80
  A 1.90 1.90 0.0 0 1 345.86 646.55
  C 344.65 648.95 344.07 650.89 344.30 653.73
  Q 344.97 662.26 343.65 670.71
  C 343.46 671.97 343.95 673.86 344.97 674.45
  Q 346.26 675.19 346.73 673.78
  L 348.40 668.76
  A 1.13 1.13 0.0 0 1 349.06 668.07
  C 351.56 667.09 354.95 666.47 354.98 663.00
  Q 355.05 653.48 355.29 643.56
  A 1.83 1.83 0.0 0 1 357.00 641.78
  Q 363.13 641.38 367.75 637.46
  A 1.36 1.33 -60.1 0 1 368.84 637.15
  Q 370.89 637.48 373.76 638.31
  Q 382.61 640.85 392.50 640.29
  C 396.10 640.09 400.03 640.53 403.27 639.49
  C 406.60 638.42 410.51 636.78 412.19 633.64
  C 415.18 628.07 412.61 620.02 406.86 617.14
  C 400.61 614.00 396.55 615.24 390.06 616.90
  Q 389.27 617.11 388.84 617.70
  A 0.61 0.61 0.0 0 0 389.42 618.66
  Q 394.23 617.93 398.99 618.58
  C 404.78 619.38 407.91 627.05 407.35 631.97
  C 406.58 638.81 401.64 638.41 396.50 639.53
  A 1.03 1.02 16.6 0 1 395.56 637.80
  L 396.62 636.76
  A 0.55 0.55 0.0 0 0 396.29 635.82
  Q 389.57 635.18 383.26 634.71
  C 379.92 634.47 377.10 633.46 373.98 632.42
  A 0.56 0.56 0.0 0 0 373.24 632.97
  L 373.25 633.52
  Q 373.26 633.98 372.80 634.05"
/>
<path stroke="#790301" vector-effect="non-scaling-stroke" d="
  M 234.30 673.64
  Q 239.47 675.66 244.27 672.76
  A 0.50 0.50 0.0 0 0 244.21 671.87
  Q 241.26 670.62 238.23 669.30
  Q 237.27 668.88 237.24 668.04
  Q 237.21 667.45 237.80 667.58
  Q 241.99 668.54 256.24 671.50
  Q 271.48 674.66 286.94 683.01
  C 289.18 684.22 292.02 684.28 294.19 686.53
  Q 294.55 686.89 295.06 686.96
  C 296.88 687.18 298.66 687.27 300.37 688.07
  C 316.42 695.50 332.26 701.00 349.84 702.28
  C 351.43 702.39 352.55 703.00 353.99 703.61
  A 0.55 0.54 15.1 0 0 354.75 703.18
  L 354.99 701.36
  A 1.05 1.04 -68.6 0 1 356.63 700.64
  Q 357.69 701.39 359.00 701.11
  A 0.38 0.38 0.0 0 0 359.09 700.40
  Q 358.12 699.89 356.97 700.00
  A 2.19 2.14 50.7 0 1 355.99 699.89
  C 350.01 697.86 343.88 696.26 338.23 693.86
  Q 317.28 684.93 307.46 679.83
  C 300.34 676.12 293.73 673.52 286.99 669.90
  Q 274.66 663.29 260.85 660.85
  A 2.40 2.40 0.0 0 1 258.88 658.23
  Q 259.68 651.02 262.25 644.24
  A 1.49 1.46 86.1 0 1 262.90 643.48
  C 266.10 641.69 271.66 640.01 271.31 635.53
  C 271.06 632.34 268.09 629.57 265.38 627.91
  Q 263.45 626.73 260.54 627.90
  C 252.81 631.04 252.42 634.94 248.69 641.58
  A 0.87 0.86 35.8 0 1 247.35 641.79
  Q 246.66 641.16 246.87 639.73
  Q 247.67 634.25 248.49 628.74
  C 249.43 622.38 244.35 620.37 239.06 618.98
  C 236.33 618.26 229.79 617.23 227.73 618.98
  Q 224.11 622.07 220.10 624.66
  C 217.29 626.48 217.31 629.03 216.98 631.66
  A 0.66 0.65 11.8 0 1 216.15 632.20
  L 207.40 629.66
  A 0.53 0.51 -9.2 0 1 207.14 629.48
  L 205.54 627.30
  Q 205.19 626.83 204.62 626.95
  Q 201.24 627.63 200.98 631.25
  Q 200.36 639.81 201.05 648.37
  Q 201.20 650.28 200.55 652.54
  Q 199.41 656.50 199.83 660.70
  Q 199.87 661.10 200.23 661.27
  L 205.01 663.55
  A 1.63 1.62 -74.6 0 0 207.32 662.23
  L 207.98 655.12
  A 3.51 3.32 43.4 0 0 207.92 654.02
  L 207.44 651.82
  A 0.42 0.42 0.0 0 1 208.21 651.52
  Q 211.34 656.90 210.01 663.00
  A 0.45 0.45 0.0 0 0 210.85 663.30
  Q 212.36 660.42 212.69 657.16
  A 1.59 1.59 0.0 0 1 215.72 656.66
  C 219.50 664.88 228.48 663.15 235.18 659.57
  C 239.46 657.29 241.95 653.77 247.56 652.60
  A 0.68 0.68 0.0 0 1 248.37 653.18
  Q 248.83 656.90 247.97 660.53
  A 1.15 1.14 -89.1 0 1 247.10 661.38
  Q 234.55 664.15 226.91 674.37
  Q 225.54 676.21 226.78 677.72
  A 2.37 2.37 0.0 0 0 228.40 678.58
  C 233.37 679.03 243.99 679.68 246.85 674.43
  A 0.70 0.70 0.0 0 0 245.76 673.58
  Q 242.11 677.03 236.93 676.19
  C 235.13 675.90 234.26 675.99 233.54 674.45
  A 0.60 0.60 0.0 0 1 234.30 673.64"
/>
<path stroke="#790301" vector-effect="non-scaling-stroke" d="
  M 298.85 633.38
  L 301.28 633.70
  A 0.75 0.74 -78.3 0 1 301.90 634.65
  Q 300.34 640.14 299.00 645.66
  C 298.45 647.92 299.04 649.79 299.05 652.11
  A 0.63 0.63 0.0 0 0 299.91 652.69
  Q 301.80 651.94 302.32 649.91
  A 1.55 1.54 46.8 0 1 305.33 650.01
  Q 305.82 652.52 307.46 654.57
  A 0.42 0.42 0.0 0 0 308.20 654.37
  Q 310.12 641.44 312.12 628.51
  Q 312.50 626.10 310.02 626.26
  A 0.83 0.81 -25.4 0 1 309.43 626.06
  L 308.03 624.81
  A 0.82 0.79 -28.0 0 0 307.34 624.61
  C 302.65 625.36 301.30 629.38 298.79 632.09
  A 0.54 0.54 0.0 0 1 297.93 632.01
  Q 294.47 626.38 287.74 626.26
  Q 287.22 626.26 286.78 626.55
  Q 283.18 628.97 279.08 630.40
  Q 276.66 631.25 275.20 632.71
  A 1.48 1.47 -60.4 0 0 275.88 635.19
  L 283.03 636.99
  Q 283.54 637.11 283.66 637.62
  Q 284.27 640.31 282.46 641.76
  Q 279.33 644.26 278.16 645.76
  Q 277.77 646.25 277.19 646.01
  L 272.71 644.16
  A 1.90 1.89 -67.7 0 0 270.23 645.20
  Q 268.99 648.23 266.16 649.87
  A 0.56 0.56 0.0 0 0 266.32 650.90
  C 268.76 651.45 270.49 652.19 272.40 654.04
  Q 278.68 660.15 287.45 665.59
  Q 291.18 667.90 293.63 665.27
  Q 293.97 664.90 293.63 664.52
  L 290.70 661.24
  A 0.92 0.91 -89.9 0 1 291.99 659.95
  L 297.27 664.76
  A 0.79 0.79 0.0 0 0 298.45 664.64
  L 298.71 664.29
  Q 299.16 663.66 298.47 663.30
  Q 294.19 661.08 292.92 659.07
  Q 289.13 653.05 283.49 648.91
  A 0.82 0.82 0.0 0 1 283.72 647.46
  C 290.84 645.14 296.14 641.13 298.27 633.76
  Q 298.40 633.32 298.85 633.38"
/>
<path stroke="#790301" vector-effect="non-scaling-stroke" d="
  M 158.43 656.39
  Q 158.71 656.37 160.18 657.04
  A 0.33 0.33 0.0 0 0 160.52 656.48
  Q 159.64 655.78 158.23 655.37
  Q 148.28 652.46 138.79 654.83
  C 136.87 655.30 136.49 657.10 135.12 658.12
  Q 134.21 658.80 133.34 659.29
  A 0.90 0.90 0.0 0 0 133.69 660.97
  C 148.54 662.52 159.63 666.36 176.06 673.09
  C 188.96 678.38 202.31 684.78 215.36 690.82
  Q 221.99 693.88 227.91 695.42
  C 240.66 698.72 253.14 701.63 266.02 698.79
  Q 266.96 698.59 266.01 698.46
  L 262.44 697.96
  A 0.47 0.47 0.0 0 1 262.07 697.31
  Q 262.40 696.50 263.52 696.46
  Q 265.01 696.41 266.36 696.41
  A 0.49 0.49 0.0 0 0 266.51 695.45
  L 263.75 694.57
  A 1.33 1.32 -39.3 0 1 264.01 691.99
  L 271.51 691.16
  A 0.14 0.14 0.0 0 0 271.51 690.89
  C 267.46 690.41 263.49 691.84 260.14 692.00
  Q 250.49 692.43 247.24 691.75
  Q 231.72 688.50 221.30 683.13
  Q 212.36 678.52 203.49 673.80
  Q 197.93 670.84 193.10 671.19
  A 1.59 1.57 -33.1 0 1 192.27 671.02
  L 177.18 663.22
  A 0.70 0.70 0.0 0 1 176.86 662.31
  Q 177.15 661.63 177.85 661.59
  C 181.58 661.37 185.13 661.61 188.48 660.04
  C 193.03 657.92 199.79 652.39 199.00 646.80
  C 198.59 643.85 195.12 641.14 193.18 638.65
  A 1.14 1.12 -18.3 0 0 192.31 638.22
  C 187.12 638.12 187.47 634.12 189.34 630.74
  A 1.54 1.54 0.0 0 0 188.58 628.57
  Q 182.40 626.02 175.71 626.58
  A 1.05 1.04 -0.6 0 0 174.76 627.55
  L 174.23 635.35
  A 0.88 0.86 79.2 0 1 173.74 636.09
  L 162.16 641.77
  A 1.22 1.22 0.0 0 0 162.00 643.86
  Q 163.17 644.68 162.12 645.88
  A 1.13 1.13 0.0 0 0 163.47 647.64
  Q 169.48 644.71 175.71 646.35
  C 179.64 647.39 181.85 649.52 180.52 653.80
  C 179.05 658.47 174.60 662.19 169.52 660.79
  Q 163.58 659.15 158.30 657.52
  Q 155.37 656.61 158.43 656.39"
/>
<path stroke="#790301" vector-effect="non-scaling-stroke" d="
  M 418.84 669.44
  A 0.38 0.38 0.0 0 0 418.21 669.83
  C 423.04 682.07 419.31 694.05 406.84 699.04
  C 404.55 699.95 400.80 699.87 399.15 700.81
  Q 394.61 703.37 399.61 701.89
  C 408.13 699.37 415.55 697.10 420.45 689.24
  C 424.46 682.80 423.88 675.06 418.84 669.44"
/>
<path stroke="#74330a" vector-effect="non-scaling-stroke" d="
  M 292.6746 688.6945
  A 5.21 0.40 -29.5 0 0 287.9430 690.9119
  A 5.21 0.40 -29.5 0 0 283.6054 693.8255
  A 5.21 0.40 -29.5 0 0 288.3370 691.6081
  A 5.21 0.40 -29.5 0 0 292.6746 688.6945"
/>
<path stroke="#74330a" vector-effect="non-scaling-stroke" d="
  M 362.4152 703.7442
  A 1.73 0.49 -7.5 0 0 360.6360 703.4842
  A 1.73 0.49 -7.5 0 0 358.9848 704.1958
  A 1.73 0.49 -7.5 0 0 360.7640 704.4558
  A 1.73 0.49 -7.5 0 0 362.4152 703.7442"
/>
<path stroke="#74330a" vector-effect="non-scaling-stroke" d="
  M 373.37 703.84
  C 372.08 703.47 369.42 703.25 368.07 703.39
  A 0.15 0.15 0.0 0 0 368.10 703.69
  Q 370.53 703.49 373.36 703.87
  A 0.02 0.01 -30.1 0 0 373.37 703.84"
/>
<path stroke="#790301" vector-effect="non-scaling-stroke" d="
  M 381.2190 704.1633
  A 2.04 0.61 -11.5 0 0 379.0984 703.9722
  A 2.04 0.61 -11.5 0 0 377.2210 704.9767
  A 2.04 0.61 -11.5 0 0 379.3416 705.1678
  A 2.04 0.61 -11.5 0 0 381.2190 704.1633"
/>
<path stroke="#f3b289" vector-effect="non-scaling-stroke" d="
  M 298.58 428.46
  Q 311.97 425.02 311.20 411.06
  A 0.62 0.61 69.8 0 0 310.21 410.60
  C 308.36 412.03 306.63 414.10 305.09 415.31
  Q 292.22 425.37 277.62 416.48
  A 0.74 0.74 0.0 0 0 276.51 417.26
  Q 277.05 419.84 278.90 422.14
  Q 286.46 431.58 298.58 428.46"
/>
<path stroke="#f3b289" vector-effect="non-scaling-stroke" d="
  M 296.6368 438.9447
  A 3.21 2.99 95.6 0 0 299.9257 436.0418
  A 3.21 2.99 95.6 0 0 297.2632 432.5553
  A 3.21 2.99 95.6 0 0 293.9743 435.4582
  A 3.21 2.99 95.6 0 0 296.6368 438.9447"
/>
<path stroke="#790301" vector-effect="non-scaling-stroke" d="
  M 216.49 608.71
  Q 217.95 610.78 218.27 613.31
  Q 218.32 613.74 218.74 613.84
  Q 220.32 614.20 220.45 612.65
  Q 220.83 608.39 217.05 607.81
  Q 215.71 607.61 216.49 608.71"
/>
<path stroke="#790301" vector-effect="non-scaling-stroke" d="
  M 212.72 613.57
  L 213.70 612.35
  A 1.87 1.86 -68.9 0 0 212.36 609.33
  C 210.11 609.19 208.15 609.25 205.94 608.99
  C 203.53 608.69 201.43 611.16 202.80 613.46
  Q 203.11 613.96 203.69 613.98
  L 207.07 614.06
  A 1.08 1.06 -21.4 0 1 207.80 614.37
  Q 209.98 616.51 212.94 616.34
  A 0.87 0.87 0.0 0 0 213.33 614.72
  L 212.90 614.47
  Q 212.29 614.12 212.72 613.57"
/>
<path stroke="#790301" vector-effect="non-scaling-stroke" d="
  M 317.8269 618.9000
  A 0.27 0.27 0.0 0 0 317.6833 618.5462
  L 300.6413 611.3474
  A 0.27 0.27 0.0 0 0 300.2876 611.4911
  L 300.2331 611.6200
  A 0.27 0.27 0.0 0 0 300.3767 611.9738
  L 317.4187 619.1726
  A 0.27 0.27 0.0 0 0 317.7724 619.0289
  L 317.8269 618.9000"
/>
<path stroke="#790301" vector-effect="non-scaling-stroke" d="
  M 359.18 639.86
  A 1.48 1.48 0.0 0 0 360.75 637.54
  L 359.46 635.83
  A 1.48 1.48 0.0 0 0 358.44 635.25
  L 357.33 635.13
  A 1.48 1.48 0.0 0 0 355.70 636.40
  L 355.54 637.54
  A 1.48 1.48 0.0 0 0 356.62 639.17
  L 359.18 639.86"
/>
<path stroke="#74330a" vector-effect="non-scaling-stroke" d="
  M 210.9746 613.8822
  A 0.86 0.44 67.1 0 0 211.0453 612.9188
  A 0.86 0.44 67.1 0 0 210.3054 612.2978
  A 0.86 0.44 67.1 0 0 210.2347 613.2612
  A 0.86 0.44 67.1 0 0 210.9746 613.8822"
/>
<path stroke="#790301" vector-effect="non-scaling-stroke" d="
  M 239.26 635.35
  L 237.77 636.83
  A 0.36 0.36 0.0 0 0 238.05 637.45
  L 239.15 637.36
  A 2.11 2.10 78.6 0 0 240.98 634.59
  Q 238.16 626.16 229.15 625.59
  A 1.22 1.22 0.0 0 0 228.03 627.46
  Q 230.83 631.92 236.36 630.85
  A 0.83 0.83 0.0 0 1 237.21 631.22
  L 239.35 634.55
  Q 239.63 634.98 239.26 635.35"
/>
<path stroke="#790301" vector-effect="non-scaling-stroke" d="
  M 217.08 633.69
  Q 215.67 641.49 215.98 649.42
  Q 215.99 649.93 216.43 649.66
  Q 222.79 645.59 230.10 643.68
  C 230.85 643.48 233.34 643.42 233.73 643.20
  Q 236.31 641.77 233.51 641.68
  Q 223.49 641.35 217.52 633.59
  Q 217.18 633.14 217.08 633.69"
/>
<path stroke="#790301" vector-effect="non-scaling-stroke" d="
  M 264.18 639.13
  A 0.27 0.27 0.0 0 0 264.63 639.29
  C 265.52 638.43 265.59 636.12 264.30 635.59
  Q 263.76 635.36 263.82 635.95
  L 264.18 639.13"
/>
<path stroke="#790301" vector-effect="non-scaling-stroke" d="
  M 231.60 653.63
  A 1.53 1.53 0.0 0 0 232.88 653.28
  L 237.38 649.40
  A 1.53 1.53 0.0 0 0 235.99 646.76
  L 228.09 648.82
  A 1.53 1.53 0.0 0 0 227.38 649.23
  L 226.40 650.23
  A 1.53 1.53 0.0 0 0 227.21 652.81
  L 231.60 653.63"
/>
<path stroke="#790301" vector-effect="non-scaling-stroke" d="
  M 256.1997 658.0131
  A 2.80 0.51 100.5 0 0 257.2115 655.3529
  A 2.80 0.51 100.5 0 0 257.2203 652.5069
  A 2.80 0.51 100.5 0 0 256.2085 655.1671
  A 2.80 0.51 100.5 0 0 256.1997 658.0131"
/>
<path stroke="#790301" vector-effect="non-scaling-stroke" d="
  M 226.6894 660.2626
  A 2.32 0.61 1.3 0 0 224.3838 659.6002
  A 2.32 0.61 1.3 0 0 222.0506 660.1574
  A 2.32 0.61 1.3 0 0 224.3562 660.8198
  A 2.32 0.61 1.3 0 0 226.6894 660.2626"
/>
<path stroke="#790301" vector-effect="non-scaling-stroke" d="
  M 325.80 691.95
  C 322.80 690.84 319.95 689.94 317.18 688.51
  Q 309.47 684.54 301.48 681.17
  C 298.32 679.83 295.28 677.42 291.80 676.08
  A 0.21 0.20 70.2 0 0 291.63 676.45
  Q 294.40 678.08 296.27 680.69
  A 1.70 1.68 82.2 0 0 297.05 681.29
  C 306.03 684.75 315.04 689.94 325.01 692.53
  Q 325.24 692.59 325.43 692.56
  Q 325.71 692.51 325.84 692.43
  A 0.27 0.26 -50.2 0 0 325.80 691.95"
/>
<path stroke="#790301" vector-effect="non-scaling-stroke" d="
  M 286.47 643.82
  C 289.61 642.61 292.04 636.92 289.37 634.15
  A 0.60 0.60 0.0 0 0 288.38 634.76
  Q 290.16 639.87 286.01 643.00
  A 0.48 0.47 15.9 0 0 286.47 643.82"
/>
<path stroke="#790301" vector-effect="non-scaling-stroke" d="
  M 182.3365 655.9927
  A 1.82 0.66 112.4 0 0 183.6402 654.5615
  A 1.82 0.66 112.4 0 0 183.7235 652.6273
  A 1.82 0.66 112.4 0 0 182.4198 654.0585
  A 1.82 0.66 112.4 0 0 182.3365 655.9927"
/>
<path stroke="#790301" vector-effect="non-scaling-stroke" d="
  M 188.3826 656.3589
  A 2.76 0.77 -32.7 0 0 185.6440 657.2020
  A 2.76 0.77 -32.7 0 0 183.7374 659.3411
  A 2.76 0.77 -32.7 0 0 186.4760 658.4980
  A 2.76 0.77 -32.7 0 0 188.3826 656.3589"
/>
<path stroke="#790301" vector-effect="non-scaling-stroke" d="
  M 188.7601 672.1527
  A 0.27 0.27 0.0 0 0 188.6196 671.7977
  L 170.7417 664.0613
  A 0.27 0.27 0.0 0 0 170.3867 664.2018
  L 170.2199 664.5873
  A 0.27 0.27 0.0 0 0 170.3604 664.9423
  L 188.2383 672.6787
  A 0.27 0.27 0.0 0 0 188.5933 672.5382
  L 188.7601 672.1527"
/>
</g>
<path fill="#000000" d="
  M 0.00 0.00
  L 564.00 0.00
  L 564.00 1002.00
  L 0.00 1002.00
  L 0.00 0.00
  Z
  M 238.95 385.07
  Q 217.19 384.94 208.64 366.24
  C 207.09 362.85 204.81 360.12 203.40 356.81
  C 201.78 353.01 197.92 355.24 198.12 358.25
  C 198.32 361.11 199.53 367.65 198.38 370.05
  A 1.56 1.51 -0.4 0 1 197.68 370.74
  Q 195.51 371.76 195.44 374.24
  C 195.28 380.11 194.82 387.47 198.08 392.42
  Q 202.56 399.24 208.24 405.36
  A 0.46 0.46 0.0 0 1 207.80 406.12
  L 203.14 405.10
  Q 202.49 404.96 202.26 405.58
  C 200.98 409.09 204.60 415.64 206.68 418.86
  Q 208.94 422.35 212.72 424.26
  A 1.62 1.60 -37.3 0 0 213.75 424.39
  Q 220.41 422.96 226.90 424.94
  Q 227.41 425.10 227.34 425.63
  L 226.84 429.04
  A 0.99 0.98 3.7 0 0 227.84 430.17
  Q 254.75 429.54 279.83 437.92
  C 283.53 439.16 286.39 439.49 286.84 443.29
  Q 287.19 446.17 286.26 449.16
  C 284.24 455.66 277.73 448.99 275.81 455.08
  C 274.34 459.78 272.72 463.07 268.42 465.98
  Q 259.96 471.70 255.99 472.98
  C 250.13 474.88 243.69 471.26 239.47 467.35
  A 0.48 0.48 0.0 0 1 239.67 466.54
  L 250.99 463.29
  A 0.69 0.68 72.4 0 0 251.44 462.41
  Q 251.22 461.78 250.30 461.75
  C 247.26 461.65 245.05 461.47 242.08 460.07
  Q 236.76 457.56 230.66 458.06
  Q 230.05 458.11 229.80 458.67
  L 228.47 461.60
  Q 228.32 461.93 227.96 461.87
  C 224.62 461.27 213.53 458.44 215.22 454.33
  Q 215.40 453.90 215.83 453.70
  Q 226.56 448.78 237.36 444.03
  Q 239.11 443.26 239.59 441.95
  Q 240.21 440.30 238.54 439.73
  Q 235.63 438.72 233.22 438.48
  Q 220.12 437.17 207.11 436.28
  A 2.02 2.02 0.0 0 1 205.26 433.93
  C 205.64 431.69 211.10 429.98 213.08 428.97
  A 0.87 0.87 0.0 0 0 213.55 428.15
  C 213.36 424.36 209.14 424.68 206.47 424.22
  A 1.28 1.24 -11.0 0 1 205.66 423.69
  Q 203.81 420.89 201.89 418.10
  Q 201.25 417.15 200.62 416.92
  Q 199.40 416.48 198.60 417.96
  A 0.74 0.70 -80.9 0 1 198.13 418.32
  L 192.95 419.49
  A 0.58 0.57 -0.2 0 0 192.51 419.92
  Q 190.29 430.05 199.00 434.89
  A 0.88 0.87 -73.6 0 1 199.45 435.72
  L 199.33 437.60
  A 0.64 0.64 0.0 0 1 198.65 438.20
  L 193.08 437.93
  A 0.97 0.97 0.0 0 0 192.44 439.67
  Q 194.86 441.53 197.94 442.84
  Q 198.47 443.06 198.75 443.45
  Q 199.28 444.20 199.08 444.47
  A 2.57 2.40 34.2 0 1 195.71 444.99
  Q 192.06 442.65 187.71 442.02
  Q 185.31 441.68 185.62 444.07
  C 185.99 447.04 187.20 449.69 186.48 452.65
  C 185.35 457.38 181.66 462.46 183.79 467.25
  C 186.06 472.35 187.87 475.38 188.32 480.82
  C 188.99 489.00 190.25 495.56 195.74 501.96
  Q 196.79 503.18 197.02 505.60
  Q 197.06 506.04 196.90 506.45
  Q 196.28 508.07 196.19 509.79
  A 0.67 0.66 -78.4 0 0 196.61 510.44
  L 198.85 511.30
  A 0.81 0.80 -82.0 0 1 199.36 511.99
  L 199.76 517.61
  A 0.71 0.71 0.0 0 0 200.51 518.27
  Q 202.01 518.17 202.96 516.92
  A 1.54 1.54 0.0 0 1 205.68 517.49
  L 207.97 527.01
  A 1.13 1.10 -85.4 0 0 208.61 527.78
  L 212.00 529.29
  A 0.88 0.88 0.0 0 1 212.51 530.04
  L 212.62 531.92
  Q 212.66 532.55 213.29 532.53
  L 216.51 532.44
  A 0.64 0.63 83.6 0 1 217.15 532.96
  C 218.91 542.94 224.03 553.82 232.95 559.35
  C 235.18 560.74 236.11 562.54 237.58 564.59
  Q 237.89 565.01 238.41 565.04
  C 242.39 565.25 248.25 556.48 244.48 554.26
  C 241.84 552.70 238.46 551.84 236.25 549.34
  C 234.19 547.02 233.37 544.62 231.80 542.06
  Q 231.19 541.08 231.68 540.29
  A 1.51 1.51 0.0 0 1 234.25 540.30
  C 238.70 547.54 246.69 544.29 252.27 540.17
  C 255.88 537.51 260.06 538.26 263.97 536.48
  Q 267.14 535.03 270.35 533.64
  C 275.40 531.45 281.29 531.03 286.26 529.73
  Q 287.68 529.35 289.21 528.09
  Q 289.61 527.75 289.53 527.23
  C 288.88 523.33 285.55 522.02 282.90 519.72
  Q 282.51 519.39 282.98 519.19
  C 291.46 515.51 290.15 527.42 296.76 528.21
  C 304.46 529.14 308.26 522.38 313.72 518.50
  C 317.24 515.99 321.25 515.41 325.42 514.78
  Q 327.46 514.48 327.99 511.45
  A 0.83 0.83 0.0 0 0 326.52 510.79
  C 323.43 514.68 319.86 513.22 316.29 514.62
  Q 312.61 516.06 309.01 519.51
  Q 307.74 520.72 305.76 519.85
  Q 305.31 519.65 305.10 519.20
  C 302.75 514.17 305.02 511.89 307.82 508.04
  C 310.42 504.48 310.34 500.40 309.96 496.24
  Q 307.92 473.58 305.15 450.95
  C 304.36 444.50 302.62 441.17 309.02 436.54
  Q 313.36 433.41 316.82 431.26
  C 324.02 426.81 329.61 422.44 335.67 417.51
  A 0.50 0.50 0.0 0 0 335.18 416.65
  C 330.12 418.50 324.71 416.83 319.74 415.61
  C 315.26 414.50 318.28 406.32 319.75 403.86
  Q 320.04 403.39 320.19 403.92
  C 320.91 406.53 320.06 410.67 322.77 411.46
  C 333.86 414.67 345.21 409.32 352.14 400.10
  Q 352.44 399.71 351.95 399.66
  Q 344.76 398.87 337.61 397.66
  C 333.35 396.94 329.97 395.29 331.21 390.38
  A 0.93 0.93 0.0 0 1 332.60 389.82
  C 337.77 392.98 345.85 395.23 351.27 392.12
  C 355.12 389.91 357.03 385.11 356.64 380.67
  Q 356.49 378.97 355.00 376.60
  Q 353.25 373.81 352.51 370.72
  A 1.23 1.22 81.5 0 0 351.25 369.78
  L 345.48 370.15
  A 1.07 1.06 84.9 0 1 344.36 369.21
  C 343.95 365.64 341.91 363.25 341.58 359.85
  C 341.22 356.22 341.22 352.29 338.00 350.52
  A 0.53 0.53 0.0 0 0 337.22 350.98
  L 337.27 357.22
  Q 337.27 357.77 336.99 358.23
  C 335.15 361.21 328.84 364.79 327.10 359.42
  C 325.40 354.18 325.60 347.96 319.41 346.12
  C 315.99 345.11 312.41 344.91 310.04 347.88
  A 1.12 1.10 -30.4 0 0 309.80 348.76
  L 311.84 362.00
  A 0.37 0.37 0.0 0 1 311.35 362.40
  Q 309.35 361.65 307.56 360.41
  C 304.81 358.49 303.79 354.72 301.48 352.78
  Q 292.06 344.88 278.32 340.67
  C 273.35 339.14 271.20 340.43 270.28 345.51
  Q 269.05 352.36 268.38 359.29
  C 268.12 361.97 267.43 363.50 265.63 365.27
  A 1.26 1.26 0.0 0 1 263.51 364.64
  C 262.41 359.41 262.16 350.19 256.59 347.71
  Q 256.06 347.48 255.58 347.79
  C 248.93 352.11 252.16 358.65 253.76 364.42
  C 254.47 366.98 254.47 369.42 254.16 371.90
  A 1.37 1.37 0.0 0 1 251.93 372.78
  C 246.11 367.96 246.22 360.41 245.35 353.56
  C 244.84 349.46 239.31 344.19 236.02 349.32
  A 2.10 2.10 0.0 0 0 235.85 351.27
  C 237.67 355.62 240.87 366.19 239.16 370.89
  Q 238.69 372.20 237.65 372.25
  A 1.18 1.17 85.3 0 1 236.43 371.21
  Q 235.15 360.65 229.49 351.56
  C 227.46 348.30 224.03 345.70 221.80 341.93
  Q 221.49 341.41 221.07 341.84
  L 219.17 343.76
  Q 218.79 344.14 218.71 344.68
  L 218.18 348.57
  Q 218.08 349.28 217.36 349.35
  L 213.80 349.71
  Q 213.28 349.76 213.31 350.28
  Q 213.81 358.17 216.84 365.30
  Q 218.92 370.21 222.85 373.82
  Q 228.53 379.03 236.01 382.41
  Q 237.58 383.12 239.10 384.72
  Q 239.43 385.07 238.95 385.07
  Z
  M 352.04 443.48
  L 345.36 448.64
  A 0.13 0.13 0.0 0 0 345.34 448.82
  L 345.38 448.88
  A 4.19 3.34 -37.7 0 0 350.74 448.96
  L 350.99 448.76
  A 4.19 3.34 -37.7 0 0 352.26 443.56
  L 352.22 443.50
  A 0.13 0.13 0.0 0 0 352.04 443.48
  Z
  M 343.3099 446.1700
  A 1.48 0.92 -17.7 0 0 341.6203 445.7436
  A 1.48 0.92 -17.7 0 0 340.4901 447.0700
  A 1.48 0.92 -17.7 0 0 342.1797 447.4964
  A 1.48 0.92 -17.7 0 0 343.3099 446.1700
  Z
  M 333.36 446.13
  Q 332.12 446.34 331.83 448.16
  Q 331.76 448.59 331.97 448.97
  Q 334.50 453.57 339.92 452.45
  A 0.51 0.51 0.0 0 0 340.24 451.66
  Q 338.11 448.65 335.14 446.67
  Q 334.12 445.99 333.36 446.13
  Z
  M 268.4913 452.7489
  A 3.72 2.27 -40.2 0 0 264.1848 453.4162
  A 3.72 2.27 -40.2 0 0 262.8087 457.5511
  A 3.72 2.27 -40.2 0 0 267.1152 456.8838
  A 3.72 2.27 -40.2 0 0 268.4913 452.7489
  Z
  M 168.63 461.09
  L 165.29 457.25
  A 0.99 0.99 0.0 0 0 163.58 457.68
  C 163.00 460.33 163.23 463.19 164.21 465.98
  Q 167.83 476.26 170.70 486.79
  C 172.42 493.12 173.09 499.48 173.76 506.00
  C 174.41 512.24 178.24 520.55 184.16 523.52
  A 1.28 1.25 46.7 0 0 185.21 523.56
  Q 188.74 522.09 189.39 518.23
  A 0.95 0.94 -64.9 0 0 189.09 517.38
  Q 184.69 513.43 183.68 507.00
  Q 179.81 482.39 176.41 457.71
  C 176.08 455.37 174.58 453.98 172.40 453.57
  A 0.95 0.94 11.5 0 0 171.31 454.29
  L 169.82 460.79
  A 0.69 0.69 0.0 0 1 168.63 461.09
  Z
  M 257.8623 455.9300
  A 2.25 1.28 -10.5 0 0 255.4167 455.0814
  A 2.25 1.28 -10.5 0 0 253.4377 456.7500
  A 2.25 1.28 -10.5 0 0 255.8833 457.5986
  A 2.25 1.28 -10.5 0 0 257.8623 455.9300
  Z
  M 169.9887 510.7600
  A 3.58 0.84 89.7 0 0 170.8100 507.1756
  A 3.58 0.84 89.7 0 0 169.9513 503.6000
  A 3.58 0.84 89.7 0 0 169.1300 507.1844
  A 3.58 0.84 89.7 0 0 169.9887 510.7600
  Z
  M 173.59 526.43
  C 172.21 524.09 173.91 521.29 173.24 518.93
  Q 172.63 516.78 170.89 515.20
  Q 170.28 514.65 170.28 515.47
  Q 170.17 524.42 175.50 531.46
  A 0.32 0.32 0.0 0 0 176.05 531.14
  Q 174.98 528.81 173.59 526.43
  Z
  M 191.37 536.97
  A 1.96 1.96 0.0 0 0 193.91 534.96
  L 193.74 532.65
  A 1.96 1.96 0.0 0 0 192.48 530.96
  L 188.69 529.53
  A 1.96 1.96 0.0 0 0 186.05 531.16
  L 185.80 533.60
  A 1.96 1.96 0.0 0 0 187.17 535.67
  L 191.37 536.97
  Z
  M 194.42 556.02
  Q 194.81 555.55 195.11 555.67
  Q 202.41 558.73 203.89 566.52
  C 204.79 571.24 204.13 580.50 197.78 581.31
  Q 190.46 582.24 187.04 576.01
  C 183.90 570.27 182.79 560.39 189.41 556.36
  Q 189.71 556.18 189.85 555.95
  Q 190.06 555.60 190.05 555.37
  A 0.51 0.51 0.0 0 0 189.18 555.03
  C 181.07 562.88 178.17 573.72 185.37 583.35
  C 187.19 585.78 190.14 587.64 192.70 589.45
  A 1.11 1.08 15.2 0 1 193.16 590.23
  C 193.52 593.81 197.22 595.90 199.33 592.08
  Q 199.58 591.62 199.51 591.09
  C 199.28 589.28 199.63 588.55 201.13 587.43
  C 211.32 579.81 211.51 563.82 200.85 556.39
  Q 197.71 554.19 194.01 554.63
  Q 193.63 555.29 192.96 554.09
  Q 194.04 547.80 190.54 543.44
  Q 189.65 542.33 187.09 541.08
  C 183.59 539.37 181.22 535.79 178.05 533.59
  A 0.52 0.51 -89.5 0 0 177.33 534.30
  Q 184.18 544.59 190.74 554.49
  Q 190.92 554.77 191.36 555.00
  Q 191.72 555.20 191.68 555.61
  Q 191.50 557.56 193.44 558.02
  A 1.07 1.07 0.0 0 0 194.65 556.54
  L 194.42 556.02
  Z
  M 302.0110 541.0187
  A 1.16 1.16 0.0 0 0 300.8797 539.8307
  L 300.0600 539.8107
  A 1.16 1.16 0.0 0 0 298.8720 540.9420
  L 298.8090 543.5213
  A 1.16 1.16 0.0 0 0 299.9403 544.7093
  L 300.7600 544.7293
  A 1.16 1.16 0.0 0 0 301.9480 543.5980
  L 302.0110 541.0187
  Z
  M 299.35 554.20
  L 302.85 559.94
  A 0.62 0.60 -19.6 0 0 303.48 560.23
  C 309.66 559.29 310.90 554.63 312.56 549.27
  Q 312.71 548.80 312.22 548.80
  Q 305.95 548.78 300.22 551.17
  Q 299.76 551.36 299.27 551.27
  Q 296.40 550.76 294.28 548.76
  A 1.27 1.25 -17.6 0 0 293.67 548.45
  Q 283.78 546.59 275.25 551.94
  Q 274.78 552.23 274.62 552.77
  L 273.10 557.75
  A 1.25 1.25 0.0 0 1 271.23 558.44
  L 267.02 555.76
  A 0.93 0.92 -46.2 0 0 265.99 555.79
  L 263.73 557.42
  A 0.66 0.65 52.8 0 1 262.84 557.29
  L 261.07 555.01
  A 1.07 1.07 0.0 0 0 259.38 555.02
  C 256.64 558.63 253.98 561.78 252.33 566.15
  Q 250.72 570.42 249.08 574.67
  Q 248.14 577.11 249.80 578.44
  Q 251.51 579.81 253.08 581.37
  A 1.33 1.31 19.7 0 1 253.46 582.16
  L 253.93 586.44
  A 2.50 2.49 88.2 0 0 256.29 588.67
  L 260.46 588.88
  A 0.61 0.56 68.6 0 1 260.87 589.08
  L 263.84 592.22
  A 0.73 0.73 0.0 0 0 264.87 592.25
  L 268.62 588.70
  A 1.37 1.35 22.3 0 1 269.53 588.33
  L 274.27 588.27
  Q 274.80 588.27 275.06 587.80
  C 276.80 584.65 279.22 586.38 281.56 585.67
  Q 286.64 584.13 285.39 578.13
  A 1.18 1.17 -81.2 0 0 284.83 577.36
  Q 281.63 575.49 281.29 571.76
  A 1.18 1.16 -75.2 0 0 280.80 570.91
  C 279.06 569.66 275.20 568.11 275.75 565.50
  A 1.13 1.13 0.0 0 1 277.34 564.70
  C 279.83 565.87 281.85 567.03 284.69 567.14
  C 289.26 567.33 298.74 568.26 302.49 565.66
  A 0.97 0.97 0.0 0 0 302.24 563.94
  Q 297.86 562.49 294.10 565.13
  A 1.52 1.50 -60.6 0 1 293.15 565.40
  Q 290.63 565.23 289.38 563.11
  A 0.75 0.75 0.0 0 1 289.90 561.99
  C 295.12 561.11 295.71 558.17 298.34 554.18
  A 0.60 0.60 0.0 0 1 299.35 554.20
  Z
  M 222.97 603.90
  L 222.70 602.45
  A 1.10 1.10 0.0 0 1 224.10 601.20
  L 228.21 602.45
  A 0.39 0.39 0.0 0 0 228.62 601.82
  C 226.02 598.91 215.21 599.35 211.53 599.59
  Q 206.73 599.91 202.78 604.48
  A 1.53 1.51 12.8 0 1 202.04 604.94
  C 196.00 606.55 181.34 613.83 188.79 621.40
  Q 191.40 624.06 193.76 623.79
  Q 198.18 623.28 211.49 619.69
  Q 217.02 618.21 222.78 613.97
  C 225.67 611.84 228.70 611.93 230.22 607.76
  A 0.39 0.39 0.0 0 0 229.71 607.26
  L 228.21 607.84
  A 0.68 0.67 -22.5 0 1 227.35 607.49
  Q 226.29 605.10 223.68 604.61
  A 0.88 0.88 0.0 0 1 222.97 603.90
  Z
  M 372.80 634.05
  Q 368.37 634.67 367.67 630.87
  Q 367.57 630.29 367.05 630.03
  C 364.34 628.65 360.67 627.70 358.55 626.79
  Q 340.49 618.98 322.63 610.73
  C 317.68 608.44 312.48 606.87 307.33 605.16
  Q 300.02 602.74 295.54 601.87
  C 285.19 599.87 261.66 597.24 254.63 608.25
  A 0.94 0.93 44.0 0 0 254.65 609.28
  Q 257.21 612.90 261.19 614.90
  Q 261.66 615.14 262.08 614.82
  L 265.16 612.44
  A 0.81 0.80 -42.5 0 1 266.18 612.48
  L 268.71 614.72
  Q 269.10 615.06 269.59 614.94
  Q 271.60 614.46 272.67 612.82
  A 0.61 0.59 42.8 0 0 272.63 612.11
  L 268.55 607.12
  A 0.40 0.40 0.0 0 1 269.01 606.49
  C 272.65 608.01 276.51 607.33 279.63 607.90
  C 289.61 609.72 296.87 612.70 305.50 615.56
  C 309.25 616.80 312.78 620.11 316.10 620.92
  Q 326.32 623.42 336.08 627.40
  Q 340.43 629.18 345.33 629.07
  A 0.52 0.51 13.0 0 1 345.80 629.82
  L 344.26 632.84
  A 0.80 0.70 59.6 0 0 344.18 633.26
  L 344.69 639.81
  A 0.91 0.91 0.0 0 1 343.66 640.78
  Q 334.78 639.56 325.76 640.06
  Q 320.21 640.36 315.83 644.72
  A 1.10 1.10 0.0 0 0 315.99 646.41
  Q 319.60 648.87 323.82 649.83
  C 325.22 650.15 326.64 649.57 326.49 647.98
  A 0.58 0.57 13.2 0 1 327.37 647.44
  C 329.64 648.84 338.58 653.70 335.16 656.96
  A 1.25 1.24 24.7 0 1 334.23 657.30
  Q 331.58 657.13 329.80 658.99
  Q 329.44 659.37 328.93 659.46
  Q 316.27 661.66 304.22 657.32
  Q 303.62 657.10 303.21 657.59
  C 300.07 661.36 305.43 663.46 303.40 667.63
  A 1.08 1.08 0.0 0 0 304.30 669.18
  C 311.24 669.62 318.72 669.94 325.33 668.11
  C 329.74 666.89 335.93 665.21 338.62 661.26
  A 0.92 0.92 0.0 0 0 338.05 659.84
  L 337.28 659.68
  A 0.48 0.47 36.7 0 1 337.15 658.80
  Q 344.92 654.49 340.27 646.61
  A 1.88 1.88 0.0 0 1 341.91 643.78
  L 344.18 643.80
  A 1.90 1.90 0.0 0 1 345.86 646.55
  C 344.65 648.95 344.07 650.89 344.30 653.73
  Q 344.97 662.26 343.65 670.71
  C 343.46 671.97 343.95 673.86 344.97 674.45
  Q 346.26 675.19 346.73 673.78
  L 348.40 668.76
  A 1.13 1.13 0.0 0 1 349.06 668.07
  C 351.56 667.09 354.95 666.47 354.98 663.00
  Q 355.05 653.48 355.29 643.56
  A 1.83 1.83 0.0 0 1 357.00 641.78
  Q 363.13 641.38 367.75 637.46
  A 1.36 1.33 -60.1 0 1 368.84 637.15
  Q 370.89 637.48 373.76 638.31
  Q 382.61 640.85 392.50 640.29
  C 396.10 640.09 400.03 640.53 403.27 639.49
  C 406.60 638.42 410.51 636.78 412.19 633.64
  C 415.18 628.07 412.61 620.02 406.86 617.14
  C 400.61 614.00 396.55 615.24 390.06 616.90
  Q 389.27 617.11 388.84 617.70
  A 0.61 0.61 0.0 0 0 389.42 618.66
  Q 394.23 617.93 398.99 618.58
  C 404.78 619.38 407.91 627.05 407.35 631.97
  C 406.58 638.81 401.64 638.41 396.50 639.53
  A 1.03 1.02 16.6 0 1 395.56 637.80
  L 396.62 636.76
  A 0.55 0.55 0.0 0 0 396.29 635.82
  Q 389.57 635.18 383.26 634.71
  C 379.92 634.47 377.10 633.46 373.98 632.42
  A 0.56 0.56 0.0 0 0 373.24 632.97
  L 373.25 633.52
  Q 373.26 633.98 372.80 634.05
  Z
  M 234.30 673.64
  Q 239.47 675.66 244.27 672.76
  A 0.50 0.50 0.0 0 0 244.21 671.87
  Q 241.26 670.62 238.23 669.30
  Q 237.27 668.88 237.24 668.04
  Q 237.21 667.45 237.80 667.58
  Q 241.99 668.54 256.24 671.50
  Q 271.48 674.66 286.94 683.01
  C 289.18 684.22 292.02 684.28 294.19 686.53
  Q 294.55 686.89 295.06 686.96
  C 296.88 687.18 298.66 687.27 300.37 688.07
  C 316.42 695.50 332.26 701.00 349.84 702.28
  C 351.43 702.39 352.55 703.00 353.99 703.61
  A 0.55 0.54 15.1 0 0 354.75 703.18
  L 354.99 701.36
  A 1.05 1.04 -68.6 0 1 356.63 700.64
  Q 357.69 701.39 359.00 701.11
  A 0.38 0.38 0.0 0 0 359.09 700.40
  Q 358.12 699.89 356.97 700.00
  A 2.19 2.14 50.7 0 1 355.99 699.89
  C 350.01 697.86 343.88 696.26 338.23 693.86
  Q 317.28 684.93 307.46 679.83
  C 300.34 676.12 293.73 673.52 286.99 669.90
  Q 274.66 663.29 260.85 660.85
  A 2.40 2.40 0.0 0 1 258.88 658.23
  Q 259.68 651.02 262.25 644.24
  A 1.49 1.46 86.1 0 1 262.90 643.48
  C 266.10 641.69 271.66 640.01 271.31 635.53
  C 271.06 632.34 268.09 629.57 265.38 627.91
  Q 263.45 626.73 260.54 627.90
  C 252.81 631.04 252.42 634.94 248.69 641.58
  A 0.87 0.86 35.8 0 1 247.35 641.79
  Q 246.66 641.16 246.87 639.73
  Q 247.67 634.25 248.49 628.74
  C 249.43 622.38 244.35 620.37 239.06 618.98
  C 236.33 618.26 229.79 617.23 227.73 618.98
  Q 224.11 622.07 220.10 624.66
  C 217.29 626.48 217.31 629.03 216.98 631.66
  A 0.66 0.65 11.8 0 1 216.15 632.20
  L 207.40 629.66
  A 0.53 0.51 -9.2 0 1 207.14 629.48
  L 205.54 627.30
  Q 205.19 626.83 204.62 626.95
  Q 201.24 627.63 200.98 631.25
  Q 200.36 639.81 201.05 648.37
  Q 201.20 650.28 200.55 652.54
  Q 199.41 656.50 199.83 660.70
  Q 199.87 661.10 200.23 661.27
  L 205.01 663.55
  A 1.63 1.62 -74.6 0 0 207.32 662.23
  L 207.98 655.12
  A 3.51 3.32 43.4 0 0 207.92 654.02
  L 207.44 651.82
  A 0.42 0.42 0.0 0 1 208.21 651.52
  Q 211.34 656.90 210.01 663.00
  A 0.45 0.45 0.0 0 0 210.85 663.30
  Q 212.36 660.42 212.69 657.16
  A 1.59 1.59 0.0 0 1 215.72 656.66
  C 219.50 664.88 228.48 663.15 235.18 659.57
  C 239.46 657.29 241.95 653.77 247.56 652.60
  A 0.68 0.68 0.0 0 1 248.37 653.18
  Q 248.83 656.90 247.97 660.53
  A 1.15 1.14 -89.1 0 1 247.10 661.38
  Q 234.55 664.15 226.91 674.37
  Q 225.54 676.21 226.78 677.72
  A 2.37 2.37 0.0 0 0 228.40 678.58
  C 233.37 679.03 243.99 679.68 246.85 674.43
  A 0.70 0.70 0.0 0 0 245.76 673.58
  Q 242.11 677.03 236.93 676.19
  C 235.13 675.90 234.26 675.99 233.54 674.45
  A 0.60 0.60 0.0 0 1 234.30 673.64
  Z
  M 298.85 633.38
  L 301.28 633.70
  A 0.75 0.74 -78.3 0 1 301.90 634.65
  Q 300.34 640.14 299.00 645.66
  C 298.45 647.92 299.04 649.79 299.05 652.11
  A 0.63 0.63 0.0 0 0 299.91 652.69
  Q 301.80 651.94 302.32 649.91
  A 1.55 1.54 46.8 0 1 305.33 650.01
  Q 305.82 652.52 307.46 654.57
  A 0.42 0.42 0.0 0 0 308.20 654.37
  Q 310.12 641.44 312.12 628.51
  Q 312.50 626.10 310.02 626.26
  A 0.83 0.81 -25.4 0 1 309.43 626.06
  L 308.03 624.81
  A 0.82 0.79 -28.0 0 0 307.34 624.61
  C 302.65 625.36 301.30 629.38 298.79 632.09
  A 0.54 0.54 0.0 0 1 297.93 632.01
  Q 294.47 626.38 287.74 626.26
  Q 287.22 626.26 286.78 626.55
  Q 283.18 628.97 279.08 630.40
  Q 276.66 631.25 275.20 632.71
  A 1.48 1.47 -60.4 0 0 275.88 635.19
  L 283.03 636.99
  Q 283.54 637.11 283.66 637.62
  Q 284.27 640.31 282.46 641.76
  Q 279.33 644.26 278.16 645.76
  Q 277.77 646.25 277.19 646.01
  L 272.71 644.16
  A 1.90 1.89 -67.7 0 0 270.23 645.20
  Q 268.99 648.23 266.16 649.87
  A 0.56 0.56 0.0 0 0 266.32 650.90
  C 268.76 651.45 270.49 652.19 272.40 654.04
  Q 278.68 660.15 287.45 665.59
  Q 291.18 667.90 293.63 665.27
  Q 293.97 664.90 293.63 664.52
  L 290.70 661.24
  A 0.92 0.91 -89.9 0 1 291.99 659.95
  L 297.27 664.76
  A 0.79 0.79 0.0 0 0 298.45 664.64
  L 298.71 664.29
  Q 299.16 663.66 298.47 663.30
  Q 294.19 661.08 292.92 659.07
  Q 289.13 653.05 283.49 648.91
  A 0.82 0.82 0.0 0 1 283.72 647.46
  C 290.84 645.14 296.14 641.13 298.27 633.76
  Q 298.40 633.32 298.85 633.38
  Z
  M 158.43 656.39
  Q 158.71 656.37 160.18 657.04
  A 0.33 0.33 0.0 0 0 160.52 656.48
  Q 159.64 655.78 158.23 655.37
  Q 148.28 652.46 138.79 654.83
  C 136.87 655.30 136.49 657.10 135.12 658.12
  Q 134.21 658.80 133.34 659.29
  A 0.90 0.90 0.0 0 0 133.69 660.97
  C 148.54 662.52 159.63 666.36 176.06 673.09
  C 188.96 678.38 202.31 684.78 215.36 690.82
  Q 221.99 693.88 227.91 695.42
  C 240.66 698.72 253.14 701.63 266.02 698.79
  Q 266.96 698.59 266.01 698.46
  L 262.44 697.96
  A 0.47 0.47 0.0 0 1 262.07 697.31
  Q 262.40 696.50 263.52 696.46
  Q 265.01 696.41 266.36 696.41
  A 0.49 0.49 0.0 0 0 266.51 695.45
  L 263.75 694.57
  A 1.33 1.32 -39.3 0 1 264.01 691.99
  L 271.51 691.16
  A 0.14 0.14 0.0 0 0 271.51 690.89
  C 267.46 690.41 263.49 691.84 260.14 692.00
  Q 250.49 692.43 247.24 691.75
  Q 231.72 688.50 221.30 683.13
  Q 212.36 678.52 203.49 673.80
  Q 197.93 670.84 193.10 671.19
  A 1.59 1.57 -33.1 0 1 192.27 671.02
  L 177.18 663.22
  A 0.70 0.70 0.0 0 1 176.86 662.31
  Q 177.15 661.63 177.85 661.59
  C 181.58 661.37 185.13 661.61 188.48 660.04
  C 193.03 657.92 199.79 652.39 199.00 646.80
  C 198.59 643.85 195.12 641.14 193.18 638.65
  A 1.14 1.12 -18.3 0 0 192.31 638.22
  C 187.12 638.12 187.47 634.12 189.34 630.74
  A 1.54 1.54 0.0 0 0 188.58 628.57
  Q 182.40 626.02 175.71 626.58
  A 1.05 1.04 -0.6 0 0 174.76 627.55
  L 174.23 635.35
  A 0.88 0.86 79.2 0 1 173.74 636.09
  L 162.16 641.77
  A 1.22 1.22 0.0 0 0 162.00 643.86
  Q 163.17 644.68 162.12 645.88
  A 1.13 1.13 0.0 0 0 163.47 647.64
  Q 169.48 644.71 175.71 646.35
  C 179.64 647.39 181.85 649.52 180.52 653.80
  C 179.05 658.47 174.60 662.19 169.52 660.79
  Q 163.58 659.15 158.30 657.52
  Q 155.37 656.61 158.43 656.39
  Z
  M 418.84 669.44
  A 0.38 0.38 0.0 0 0 418.21 669.83
  C 423.04 682.07 419.31 694.05 406.84 699.04
  C 404.55 699.95 400.80 699.87 399.15 700.81
  Q 394.61 703.37 399.61 701.89
  C 408.13 699.37 415.55 697.10 420.45 689.24
  C 424.46 682.80 423.88 675.06 418.84 669.44
  Z
  M 292.6746 688.6945
  A 5.21 0.40 -29.5 0 0 287.9430 690.9119
  A 5.21 0.40 -29.5 0 0 283.6054 693.8255
  A 5.21 0.40 -29.5 0 0 288.3370 691.6081
  A 5.21 0.40 -29.5 0 0 292.6746 688.6945
  Z
  M 362.4152 703.7442
  A 1.73 0.49 -7.5 0 0 360.6360 703.4842
  A 1.73 0.49 -7.5 0 0 358.9848 704.1958
  A 1.73 0.49 -7.5 0 0 360.7640 704.4558
  A 1.73 0.49 -7.5 0 0 362.4152 703.7442
  Z
  M 373.37 703.84
  C 372.08 703.47 369.42 703.25 368.07 703.39
  A 0.15 0.15 0.0 0 0 368.10 703.69
  Q 370.53 703.49 373.36 703.87
  A 0.02 0.01 -30.1 0 0 373.37 703.84
  Z
  M 381.2190 704.1633
  A 2.04 0.61 -11.5 0 0 379.0984 703.9722
  A 2.04 0.61 -11.5 0 0 377.2210 704.9767
  A 2.04 0.61 -11.5 0 0 379.3416 705.1678
  A 2.04 0.61 -11.5 0 0 381.2190 704.1633
  Z"
/>
<path fill="#fefefe" d="
  M 239.10 384.72
  Q 237.58 383.12 236.01 382.41
  Q 228.53 379.03 222.85 373.82
  Q 218.92 370.21 216.84 365.30
  Q 213.81 358.17 213.31 350.28
  Q 213.28 349.76 213.80 349.71
  L 217.36 349.35
  Q 218.08 349.28 218.18 348.57
  L 218.71 344.68
  Q 218.79 344.14 219.17 343.76
  L 221.07 341.84
  Q 221.49 341.41 221.80 341.93
  C 224.03 345.70 227.46 348.30 229.49 351.56
  Q 235.15 360.65 236.43 371.21
  A 1.18 1.17 85.3 0 0 237.65 372.25
  Q 238.69 372.20 239.16 370.89
  C 240.87 366.19 237.67 355.62 235.85 351.27
  A 2.10 2.10 0.0 0 1 236.02 349.32
  C 239.31 344.19 244.84 349.46 245.35 353.56
  C 246.22 360.41 246.11 367.96 251.93 372.78
  A 1.37 1.37 0.0 0 0 254.16 371.90
  C 254.47 369.42 254.47 366.98 253.76 364.42
  C 252.16 358.65 248.93 352.11 255.58 347.79
  Q 256.06 347.48 256.59 347.71
  C 262.16 350.19 262.41 359.41 263.51 364.64
  A 1.26 1.26 0.0 0 0 265.63 365.27
  C 267.43 363.50 268.12 361.97 268.38 359.29
  Q 269.05 352.36 270.28 345.51
  C 271.20 340.43 273.35 339.14 278.32 340.67
  Q 292.06 344.88 301.48 352.78
  C 303.79 354.72 304.81 358.49 307.56 360.41
  Q 309.35 361.65 311.35 362.40
  A 0.37 0.37 0.0 0 0 311.84 362.00
  L 309.80 348.76
  A 1.12 1.10 -30.4 0 1 310.04 347.88
  C 312.41 344.91 315.99 345.11 319.41 346.12
  C 325.60 347.96 325.40 354.18 327.10 359.42
  C 328.84 364.79 335.15 361.21 336.99 358.23
  Q 337.27 357.77 337.27 357.22
  L 337.22 350.98
  A 0.53 0.53 0.0 0 1 338.00 350.52
  C 341.22 352.29 341.22 356.22 341.58 359.85
  C 341.91 363.25 343.95 365.64 344.36 369.21
  A 1.07 1.06 84.9 0 0 345.48 370.15
  L 351.25 369.78
  A 1.23 1.22 81.5 0 1 352.51 370.72
  Q 353.25 373.81 355.00 376.60
  Q 356.49 378.97 356.64 380.67
  C 357.03 385.11 355.12 389.91 351.27 392.12
  C 345.85 395.23 337.77 392.98 332.60 389.82
  A 0.93 0.93 0.0 0 0 331.21 390.38
  C 329.97 395.29 333.35 396.94 337.61 397.66
  Q 344.76 398.87 351.95 399.66
  Q 352.44 399.71 352.14 400.10
  C 345.21 409.32 333.86 414.67 322.77 411.46
  C 320.06 410.67 320.91 406.53 320.19 403.92
  Q 320.04 403.39 319.75 403.86
  C 318.28 406.32 315.26 414.50 319.74 415.61
  C 324.71 416.83 330.12 418.50 335.18 416.65
  A 0.50 0.50 0.0 0 1 335.67 417.51
  C 329.61 422.44 324.02 426.81 316.82 431.26
  Q 313.36 433.41 309.02 436.54
  C 302.62 441.17 304.36 444.50 305.15 450.95
  Q 307.92 473.58 309.96 496.24
  C 310.34 500.40 310.42 504.48 307.82 508.04
  C 305.02 511.89 302.75 514.17 305.10 519.20
  Q 305.31 519.65 305.76 519.85
  Q 307.74 520.72 309.01 519.51
  Q 312.61 516.06 316.29 514.62
  C 319.86 513.22 323.43 514.68 326.52 510.79
  A 0.83 0.83 0.0 0 1 327.99 511.45
  Q 327.46 514.48 325.42 514.78
  C 321.25 515.41 317.24 515.99 313.72 518.50
  C 308.26 522.38 304.46 529.14 296.76 528.21
  C 290.15 527.42 291.46 515.51 282.98 519.19
  Q 282.51 519.39 282.90 519.72
  C 285.55 522.02 288.88 523.33 289.53 527.23
  Q 289.61 527.75 289.21 528.09
  Q 287.68 529.35 286.26 529.73
  C 281.29 531.03 275.40 531.45 270.35 533.64
  Q 267.14 535.03 263.97 536.48
  C 260.06 538.26 255.88 537.51 252.27 540.17
  C 246.69 544.29 238.70 547.54 234.25 540.30
  A 1.51 1.51 0.0 0 0 231.68 540.29
  Q 231.19 541.08 231.80 542.06
  C 233.37 544.62 234.19 547.02 236.25 549.34
  C 238.46 551.84 241.84 552.70 244.48 554.26
  C 248.25 556.48 242.39 565.25 238.41 565.04
  Q 237.89 565.01 237.58 564.59
  C 236.11 562.54 235.18 560.74 232.95 559.35
  C 224.03 553.82 218.91 542.94 217.15 532.96
  A 0.64 0.63 83.6 0 0 216.51 532.44
  L 213.29 532.53
  Q 212.66 532.55 212.62 531.92
  L 212.51 530.04
  A 0.88 0.88 0.0 0 0 212.00 529.29
  L 208.61 527.78
  A 1.13 1.10 -85.4 0 1 207.97 527.01
  L 205.68 517.49
  A 1.54 1.54 0.0 0 0 202.96 516.92
  Q 202.01 518.17 200.51 518.27
  A 0.71 0.71 0.0 0 1 199.76 517.61
  L 199.36 511.99
  A 0.81 0.80 -82.0 0 0 198.85 511.30
  L 196.61 510.44
  A 0.67 0.66 -78.4 0 1 196.19 509.79
  Q 196.28 508.07 196.90 506.45
  Q 197.06 506.04 197.02 505.60
  Q 196.79 503.18 195.74 501.96
  C 190.25 495.56 188.99 489.00 188.32 480.82
  C 187.87 475.38 186.06 472.35 183.79 467.25
  C 181.66 462.46 185.35 457.38 186.48 452.65
  C 187.20 449.69 185.99 447.04 185.62 444.07
  Q 185.31 441.68 187.71 442.02
  Q 192.06 442.65 195.71 444.99
  A 2.57 2.40 34.2 0 0 199.08 444.47
  Q 199.28 444.20 198.75 443.45
  Q 198.47 443.06 197.94 442.84
  Q 194.86 441.53 192.44 439.67
  A 0.97 0.97 0.0 0 1 193.08 437.93
  L 198.65 438.20
  A 0.64 0.64 0.0 0 0 199.33 437.60
  L 199.45 435.72
  A 0.88 0.87 -73.6 0 0 199.00 434.89
  Q 190.29 430.05 192.51 419.92
  A 0.58 0.57 -0.2 0 1 192.95 419.49
  L 198.13 418.32
  A 0.74 0.70 -80.9 0 0 198.60 417.96
  Q 199.40 416.48 200.62 416.92
  Q 201.25 417.15 201.89 418.10
  Q 203.81 420.89 205.66 423.69
  A 1.28 1.24 -11.0 0 0 206.47 424.22
  C 209.14 424.68 213.36 424.36 213.55 428.15
  A 0.87 0.87 0.0 0 1 213.08 428.97
  C 211.10 429.98 205.64 431.69 205.26 433.93
  A 2.02 2.02 0.0 0 0 207.11 436.28
  Q 220.12 437.17 233.22 438.48
  Q 235.63 438.72 238.54 439.73
  Q 240.21 440.30 239.59 441.95
  Q 239.11 443.26 237.36 444.03
  Q 226.56 448.78 215.83 453.70
  Q 215.40 453.90 215.22 454.33
  C 213.53 458.44 224.62 461.27 227.96 461.87
  Q 228.32 461.93 228.47 461.60
  L 229.80 458.67
  Q 230.05 458.11 230.66 458.06
  Q 236.76 457.56 242.08 460.07
  C 245.05 461.47 247.26 461.65 250.30 461.75
  Q 251.22 461.78 251.44 462.41
  A 0.69 0.68 72.4 0 1 250.99 463.29
  L 239.67 466.54
  A 0.48 0.48 0.0 0 0 239.47 467.35
  C 243.69 471.26 250.13 474.88 255.99 472.98
  Q 259.96 471.70 268.42 465.98
  C 272.72 463.07 274.34 459.78 275.81 455.08
  C 277.73 448.99 284.24 455.66 286.26 449.16
  Q 287.19 446.17 286.84 443.29
  C 286.39 439.49 283.53 439.16 279.83 437.92
  Q 254.75 429.54 227.84 430.17
  A 0.99 0.98 3.7 0 1 226.84 429.04
  L 227.34 425.63
  Q 227.41 425.10 226.90 424.94
  Q 220.41 422.96 213.75 424.39
  A 1.62 1.60 -37.3 0 1 212.72 424.26
  Q 208.94 422.35 206.68 418.86
  C 204.60 415.64 200.98 409.09 202.26 405.58
  Q 202.49 404.96 203.14 405.10
  L 207.80 406.12
  A 0.46 0.46 0.0 0 0 208.24 405.36
  Q 202.56 399.24 198.08 392.42
  C 194.82 387.47 195.28 380.11 195.44 374.24
  Q 195.51 371.76 197.68 370.74
  A 1.56 1.51 -0.4 0 0 198.38 370.05
  C 199.53 367.65 198.32 361.11 198.12 358.25
  C 197.92 355.24 201.78 353.01 203.40 356.81
  C 204.81 360.12 207.09 362.85 208.64 366.24
  Q 217.19 384.94 238.95 385.07
  Q 239.43 385.07 239.10 384.72
  Z
  M 298.58 428.46
  Q 311.97 425.02 311.20 411.06
  A 0.62 0.61 69.8 0 0 310.21 410.60
  C 308.36 412.03 306.63 414.10 305.09 415.31
  Q 292.22 425.37 277.62 416.48
  A 0.74 0.74 0.0 0 0 276.51 417.26
  Q 277.05 419.84 278.90 422.14
  Q 286.46 431.58 298.58 428.46
  Z
  M 296.6368 438.9447
  A 3.21 2.99 95.6 0 0 299.9257 436.0418
  A 3.21 2.99 95.6 0 0 297.2632 432.5553
  A 3.21 2.99 95.6 0 0 293.9743 435.4582
  A 3.21 2.99 95.6 0 0 296.6368 438.9447
  Z"
/>
<path fill="#e86514" d="
  M 298.58 428.46
  Q 286.46 431.58 278.90 422.14
  Q 277.05 419.84 276.51 417.26
  A 0.74 0.74 0.0 0 1 277.62 416.48
  Q 292.22 425.37 305.09 415.31
  C 306.63 414.10 308.36 412.03 310.21 410.60
  A 0.62 0.61 69.8 0 1 311.20 411.06
  Q 311.97 425.02 298.58 428.46
  Z"
/>
<ellipse fill="#e86514" cx="0.00" cy="0.00" transform="translate(296.95,435.75) rotate(95.6)" rx="3.21" ry="2.99"/>
<path fill="#fefefe" d="
  M 352.04 443.48
  A 0.13 0.13 0.0 0 1 352.22 443.50
  L 352.26 443.56
  A 4.19 3.34 -37.7 0 1 350.99 448.76
  L 350.74 448.96
  A 4.19 3.34 -37.7 0 1 345.38 448.88
  L 345.34 448.82
  A 0.13 0.13 0.0 0 1 345.36 448.64
  L 352.04 443.48
  Z"
/>
<ellipse fill="#fefefe" cx="0.00" cy="0.00" transform="translate(341.90,446.62) rotate(-17.7)" rx="1.48" ry="0.92"/>
<path fill="#fefefe" d="
  M 335.14 446.67
  Q 338.11 448.65 340.24 451.66
  A 0.51 0.51 0.0 0 1 339.92 452.45
  Q 334.50 453.57 331.97 448.97
  Q 331.76 448.59 331.83 448.16
  Q 332.12 446.34 333.36 446.13
  Q 334.12 445.99 335.14 446.67
  Z"
/>
<ellipse fill="#fefefe" cx="0.00" cy="0.00" transform="translate(265.65,455.15) rotate(-40.2)" rx="3.72" ry="2.27"/>
<path fill="#fefefe" d="
  M 168.63 461.09
  A 0.69 0.69 0.0 0 0 169.82 460.79
  L 171.31 454.29
  A 0.95 0.94 11.5 0 1 172.40 453.57
  C 174.58 453.98 176.08 455.37 176.41 457.71
  Q 179.81 482.39 183.68 507.00
  Q 184.69 513.43 189.09 517.38
  A 0.95 0.94 -64.9 0 1 189.39 518.23
  Q 188.74 522.09 185.21 523.56
  A 1.28 1.25 46.7 0 1 184.16 523.52
  C 178.24 520.55 174.41 512.24 173.76 506.00
  C 173.09 499.48 172.42 493.12 170.70 486.79
  Q 167.83 476.26 164.21 465.98
  C 163.23 463.19 163.00 460.33 163.58 457.68
  A 0.99 0.99 0.0 0 1 165.29 457.25
  L 168.63 461.09
  Z"
/>
<ellipse fill="#fefefe" cx="0.00" cy="0.00" transform="translate(255.65,456.34) rotate(-10.5)" rx="2.25" ry="1.28"/>
<ellipse fill="#fefefe" cx="0.00" cy="0.00" transform="translate(169.97,507.18) rotate(89.7)" rx="3.58" ry="0.84"/>
<path fill="#fefefe" d="
  M 173.59 526.43
  Q 174.98 528.81 176.05 531.14
  A 0.32 0.32 0.0 0 1 175.50 531.46
  Q 170.17 524.42 170.28 515.47
  Q 170.28 514.65 170.89 515.20
  Q 172.63 516.78 173.24 518.93
  C 173.91 521.29 172.21 524.09 173.59 526.43
  Z"
/>
<path fill="#fefefe" d="
  M 191.37 536.97
  L 187.17 535.67
  A 1.96 1.96 0.0 0 1 185.80 533.60
  L 186.05 531.16
  A 1.96 1.96 0.0 0 1 188.69 529.53
  L 192.48 530.96
  A 1.96 1.96 0.0 0 1 193.74 532.65
  L 193.91 534.96
  A 1.96 1.96 0.0 0 1 191.37 536.97
  Z"
/>
<path fill="#fefefe" d="
  M 192.96 554.09
  L 192.30 554.84
  Q 191.84 555.35 192.53 555.33
  Q 193.86 555.28 194.42 556.02
  L 194.65 556.54
  A 1.07 1.07 0.0 0 1 193.44 558.02
  Q 191.50 557.56 191.68 555.61
  Q 191.72 555.20 191.36 555.00
  Q 190.92 554.77 190.74 554.49
  Q 184.18 544.59 177.33 534.30
  A 0.52 0.51 -89.5 0 1 178.05 533.59
  C 181.22 535.79 183.59 539.37 187.09 541.08
  Q 189.65 542.33 190.54 543.44
  Q 194.04 547.80 192.96 554.09
  Z"
/>
<rect fill="#fefefe" x="-1.57" y="-2.45" transform="translate(300.41,542.27) rotate(1.4)" width="3.14" height="4.90" rx="1.16"/>
<path fill="#fefefe" d="
  M 298.34 554.18
  C 295.71 558.17 295.12 561.11 289.90 561.99
  A 0.75 0.75 0.0 0 0 289.38 563.11
  Q 290.63 565.23 293.15 565.40
  A 1.52 1.50 -60.6 0 0 294.10 565.13
  Q 297.86 562.49 302.24 563.94
  A 0.97 0.97 0.0 0 1 302.49 565.66
  C 298.74 568.26 289.26 567.33 284.69 567.14
  C 281.85 567.03 279.83 565.87 277.34 564.70
  A 1.13 1.13 0.0 0 0 275.75 565.50
  C 275.20 568.11 279.06 569.66 280.80 570.91
  A 1.18 1.16 -75.2 0 1 281.29 571.76
  Q 281.63 575.49 284.83 577.36
  A 1.18 1.17 -81.2 0 1 285.39 578.13
  Q 286.64 584.13 281.56 585.67
  C 279.22 586.38 276.80 584.65 275.06 587.80
  Q 274.80 588.27 274.27 588.27
  L 269.53 588.33
  A 1.37 1.35 22.3 0 0 268.62 588.70
  L 264.87 592.25
  A 0.73 0.73 0.0 0 1 263.84 592.22
  L 260.87 589.08
  A 0.61 0.56 68.6 0 0 260.46 588.88
  L 256.29 588.67
  A 2.50 2.49 88.2 0 1 253.93 586.44
  L 253.46 582.16
  A 1.33 1.31 19.7 0 0 253.08 581.37
  Q 251.51 579.81 249.80 578.44
  Q 248.14 577.11 249.08 574.67
  Q 250.72 570.42 252.33 566.15
  C 253.98 561.78 256.64 558.63 259.38 555.02
  A 1.07 1.07 0.0 0 1 261.07 555.01
  L 262.84 557.29
  A 0.66 0.65 52.8 0 0 263.73 557.42
  L 265.99 555.79
  A 0.93 0.92 -46.2 0 1 267.02 555.76
  L 271.23 558.44
  A 1.25 1.25 0.0 0 0 273.10 557.75
  L 274.62 552.77
  Q 274.78 552.23 275.25 551.94
  Q 283.78 546.59 293.67 548.45
  A 1.27 1.25 -17.6 0 1 294.28 548.76
  Q 296.40 550.76 299.27 551.27
  Q 299.76 551.36 300.22 551.17
  Q 305.95 548.78 312.22 548.80
  Q 312.71 548.80 312.56 549.27
  C 310.90 554.63 309.66 559.29 303.48 560.23
  A 0.62 0.60 -19.6 0 1 302.85 559.94
  L 299.35 554.20
  A 0.60 0.60 0.0 0 0 298.34 554.18
  Z"
/>
<path fill="#e86514" d="
  M 192.96 554.09
  Q 193.63 555.29 194.01 554.63
  Q 197.71 554.19 200.85 556.39
  C 211.51 563.82 211.32 579.81 201.13 587.43
  C 199.63 588.55 199.28 589.28 199.51 591.09
  Q 199.58 591.62 199.33 592.08
  C 197.22 595.90 193.52 593.81 193.16 590.23
  A 1.11 1.08 15.2 0 0 192.70 589.45
  C 190.14 587.64 187.19 585.78 185.37 583.35
  C 178.17 573.72 181.07 562.88 189.18 555.03
  A 0.51 0.51 0.0 0 1 190.05 555.37
  Q 190.06 555.60 189.85 555.95
  Q 189.71 556.18 189.41 556.36
  C 182.79 560.39 183.90 570.27 187.04 576.01
  Q 190.46 582.24 197.78 581.31
  C 204.13 580.50 204.79 571.24 203.89 566.52
  Q 202.41 558.73 195.11 555.67
  Q 194.81 555.55 194.42 556.02
  Q 193.86 555.28 192.53 555.33
  Q 191.84 555.35 192.30 554.84
  L 192.96 554.09
  Z"
/>
<path fill="#f10502" d="
  M 223.68 604.61
  Q 226.29 605.10 227.35 607.49
  A 0.68 0.67 -22.5 0 0 228.21 607.84
  L 229.71 607.26
  A 0.39 0.39 0.0 0 1 230.22 607.76
  C 228.70 611.93 225.67 611.84 222.78 613.97
  Q 217.02 618.21 211.49 619.69
  Q 198.18 623.28 193.76 623.79
  Q 191.40 624.06 188.79 621.40
  C 181.34 613.83 196.00 606.55 202.04 604.94
  A 1.53 1.51 12.8 0 0 202.78 604.48
  Q 206.73 599.91 211.53 599.59
  C 215.21 599.35 226.02 598.91 228.62 601.82
  A 0.39 0.39 0.0 0 1 228.21 602.45
  L 224.10 601.20
  A 1.10 1.10 0.0 0 0 222.70 602.45
  L 222.97 603.90
  A 0.88 0.88 0.0 0 0 223.68 604.61
  Z
  M 216.49 608.71
  Q 217.95 610.78 218.27 613.31
  Q 218.32 613.74 218.74 613.84
  Q 220.32 614.20 220.45 612.65
  Q 220.83 608.39 217.05 607.81
  Q 215.71 607.61 216.49 608.71
  Z
  M 212.72 613.57
  L 213.70 612.35
  A 1.87 1.86 -68.9 0 0 212.36 609.33
  C 210.11 609.19 208.15 609.25 205.94 608.99
  C 203.53 608.69 201.43 611.16 202.80 613.46
  Q 203.11 613.96 203.69 613.98
  L 207.07 614.06
  A 1.08 1.06 -21.4 0 1 207.80 614.37
  Q 209.98 616.51 212.94 616.34
  A 0.87 0.87 0.0 0 0 213.33 614.72
  L 212.90 614.47
  Q 212.29 614.12 212.72 613.57
  Z"
/>
<path fill="#f10502" d="
  M 373.25 633.52
  L 373.24 632.97
  A 0.56 0.56 0.0 0 1 373.98 632.42
  C 377.10 633.46 379.92 634.47 383.26 634.71
  Q 389.57 635.18 396.29 635.82
  A 0.55 0.55 0.0 0 1 396.62 636.76
  L 395.56 637.80
  A 1.03 1.02 16.6 0 0 396.50 639.53
  C 401.64 638.41 406.58 638.81 407.35 631.97
  C 407.91 627.05 404.78 619.38 398.99 618.58
  Q 394.23 617.93 389.42 618.66
  A 0.61 0.61 0.0 0 1 388.84 617.70
  Q 389.27 617.11 390.06 616.90
  C 396.55 615.24 400.61 614.00 406.86 617.14
  C 412.61 620.02 415.18 628.07 412.19 633.64
  C 410.51 636.78 406.60 638.42 403.27 639.49
  C 400.03 640.53 396.10 640.09 392.50 640.29
  Q 382.61 640.85 373.76 638.31
  Q 370.89 637.48 368.84 637.15
  A 1.36 1.33 -60.1 0 0 367.75 637.46
  Q 363.13 641.38 357.00 641.78
  A 1.83 1.83 0.0 0 0 355.29 643.56
  Q 355.05 653.48 354.98 663.00
  C 354.95 666.47 351.56 667.09 349.06 668.07
  A 1.13 1.13 0.0 0 0 348.40 668.76
  L 346.73 673.78
  Q 346.26 675.19 344.97 674.45
  C 343.95 673.86 343.46 671.97 343.65 670.71
  Q 344.97 662.26 344.30 653.73
  C 344.07 650.89 344.65 648.95 345.86 646.55
  A 1.90 1.90 0.0 0 0 344.18 643.80
  L 341.91 643.78
  A 1.88 1.88 0.0 0 0 340.27 646.61
  Q 344.92 654.49 337.15 658.80
  A 0.48 0.47 36.7 0 0 337.28 659.68
  L 338.05 659.84
  A 0.92 0.92 0.0 0 1 338.62 661.26
  C 335.93 665.21 329.74 666.89 325.33 668.11
  C 318.72 669.94 311.24 669.62 304.30 669.18
  A 1.08 1.08 0.0 0 1 303.40 667.63
  C 305.43 663.46 300.07 661.36 303.21 657.59
  Q 303.62 657.10 304.22 657.32
  Q 316.27 661.66 328.93 659.46
  Q 329.44 659.37 329.80 658.99
  Q 331.58 657.13 334.23 657.30
  A 1.25 1.24 24.7 0 0 335.16 656.96
  C 338.58 653.70 329.64 648.84 327.37 647.44
  A 0.58 0.57 13.2 0 0 326.49 647.98
  C 326.64 649.57 325.22 650.15 323.82 649.83
  Q 319.60 648.87 315.99 646.41
  A 1.10 1.10 0.0 0 1 315.83 644.72
  Q 320.21 640.36 325.76 640.06
  Q 334.78 639.56 343.66 640.78
  A 0.91 0.91 0.0 0 0 344.69 639.81
  L 344.18 633.26
  A 0.80 0.70 59.6 0 1 344.26 632.84
  L 345.80 629.82
  A 0.52 0.51 13.0 0 0 345.33 629.07
  Q 340.43 629.18 336.08 627.40
  Q 326.32 623.42 316.10 620.92
  C 312.78 620.11 309.25 616.80 305.50 615.56
  C 296.87 612.70 289.61 609.72 279.63 607.90
  C 276.51 607.33 272.65 608.01 269.01 606.49
  A 0.40 0.40 0.0 0 0 268.55 607.12
  L 272.63 612.11
  A 0.61 0.59 42.8 0 1 272.67 612.82
  Q 271.60 614.46 269.59 614.94
  Q 269.10 615.06 268.71 614.72
  L 266.18 612.48
  A 0.81 0.80 -42.5 0 0 265.16 612.44
  L 262.08 614.82
  Q 261.66 615.14 261.19 614.90
  Q 257.21 612.90 254.65 609.28
  A 0.94 0.93 44.0 0 1 254.63 608.25
  C 261.66 597.24 285.19 599.87 295.54 601.87
  Q 300.02 602.74 307.33 605.16
  C 312.48 606.87 317.68 608.44 322.63 610.73
  Q 340.49 618.98 358.55 626.79
  C 360.67 627.70 364.34 628.65 367.05 630.03
  Q 367.57 630.29 367.67 630.87
  Q 368.37 634.67 372.80 634.05
  Q 373.26 633.98 373.25 633.52
  Z
  M 317.8269 618.9000
  A 0.27 0.27 0.0 0 0 317.6833 618.5462
  L 300.6413 611.3474
  A 0.27 0.27 0.0 0 0 300.2876 611.4911
  L 300.2331 611.6200
  A 0.27 0.27 0.0 0 0 300.3767 611.9738
  L 317.4187 619.1726
  A 0.27 0.27 0.0 0 0 317.7724 619.0289
  L 317.8269 618.9000
  Z
  M 359.18 639.86
  A 1.48 1.48 0.0 0 0 360.75 637.54
  L 359.46 635.83
  A 1.48 1.48 0.0 0 0 358.44 635.25
  L 357.33 635.13
  A 1.48 1.48 0.0 0 0 355.70 636.40
  L 355.54 637.54
  A 1.48 1.48 0.0 0 0 356.62 639.17
  L 359.18 639.86
  Z"
/>
<path fill="#000000" d="
  M 216.49 608.71
  Q 215.71 607.61 217.05 607.81
  Q 220.83 608.39 220.45 612.65
  Q 220.32 614.20 218.74 613.84
  Q 218.32 613.74 218.27 613.31
  Q 217.95 610.78 216.49 608.71
  Z"
/>
<path fill="#000000" d="
  M 212.90 614.47
  L 213.33 614.72
  A 0.87 0.87 0.0 0 1 212.94 616.34
  Q 209.98 616.51 207.80 614.37
  A 1.08 1.06 -21.4 0 0 207.07 614.06
  L 203.69 613.98
  Q 203.11 613.96 202.80 613.46
  C 201.43 611.16 203.53 608.69 205.94 608.99
  C 208.15 609.25 210.11 609.19 212.36 609.33
  A 1.87 1.86 -68.9 0 1 213.70 612.35
  L 212.72 613.57
  Q 212.29 614.12 212.90 614.47
  Z
  M 210.9746 613.8822
  A 0.86 0.44 67.1 0 0 211.0453 612.9188
  A 0.86 0.44 67.1 0 0 210.3054 612.2978
  A 0.86 0.44 67.1 0 0 210.2347 613.2612
  A 0.86 0.44 67.1 0 0 210.9746 613.8822
  Z"
/>
<rect fill="#000000" x="-9.52" y="-0.34" transform="translate(309.03,615.26) rotate(22.9)" width="19.04" height="0.68" rx="0.27"/>
<ellipse fill="#e86514" cx="0.00" cy="0.00" transform="translate(210.64,613.09) rotate(67.1)" rx="0.86" ry="0.44"/>
<path fill="#f10502" d="
  M 234.30 673.64
  A 0.60 0.60 0.0 0 0 233.54 674.45
  C 234.26 675.99 235.13 675.90 236.93 676.19
  Q 242.11 677.03 245.76 673.58
  A 0.70 0.70 0.0 0 1 246.85 674.43
  C 243.99 679.68 233.37 679.03 228.40 678.58
  A 2.37 2.37 0.0 0 1 226.78 677.72
  Q 225.54 676.21 226.91 674.37
  Q 234.55 664.15 247.10 661.38
  A 1.15 1.14 -89.1 0 0 247.97 660.53
  Q 248.83 656.90 248.37 653.18
  A 0.68 0.68 0.0 0 0 247.56 652.60
  C 241.95 653.77 239.46 657.29 235.18 659.57
  C 228.48 663.15 219.50 664.88 215.72 656.66
  A 1.59 1.59 0.0 0 0 212.69 657.16
  Q 212.36 660.42 210.85 663.30
  A 0.45 0.45 0.0 0 1 210.01 663.00
  Q 211.34 656.90 208.21 651.52
  A 0.42 0.42 0.0 0 0 207.44 651.82
  L 207.92 654.02
  A 3.51 3.32 43.4 0 1 207.98 655.12
  L 207.32 662.23
  A 1.63 1.62 -74.6 0 1 205.01 663.55
  L 200.23 661.27
  Q 199.87 661.10 199.83 660.70
  Q 199.41 656.50 200.55 652.54
  Q 201.20 650.28 201.05 648.37
  Q 200.36 639.81 200.98 631.25
  Q 201.24 627.63 204.62 626.95
  Q 205.19 626.83 205.54 627.30
  L 207.14 629.48
  A 0.53 0.51 -9.2 0 0 207.40 629.66
  L 216.15 632.20
  A 0.66 0.65 11.8 0 0 216.98 631.66
  C 217.31 629.03 217.29 626.48 220.10 624.66
  Q 224.11 622.07 227.73 618.98
  C 229.79 617.23 236.33 618.26 239.06 618.98
  C 244.35 620.37 249.43 622.38 248.49 628.74
  Q 247.67 634.25 246.87 639.73
  Q 246.66 641.16 247.35 641.79
  A 0.87 0.86 35.8 0 0 248.69 641.58
  C 252.42 634.94 252.81 631.04 260.54 627.90
  Q 263.45 626.73 265.38 627.91
  C 268.09 629.57 271.06 632.34 271.31 635.53
  C 271.66 640.01 266.10 641.69 262.90 643.48
  A 1.49 1.46 86.1 0 0 262.25 644.24
  Q 259.68 651.02 258.88 658.23
  A 2.40 2.40 0.0 0 0 260.85 660.85
  Q 274.66 663.29 286.99 669.90
  C 293.73 673.52 300.34 676.12 307.46 679.83
  Q 317.28 684.93 338.23 693.86
  C 343.88 696.26 350.01 697.86 355.99 699.89
  A 2.19 2.14 50.7 0 0 356.97 700.00
  Q 358.12 699.89 359.09 700.40
  A 0.38 0.38 0.0 0 1 359.00 701.11
  Q 357.69 701.39 356.63 700.64
  A 1.05 1.04 -68.6 0 0 354.99 701.36
  L 354.75 703.18
  A 0.55 0.54 15.1 0 1 353.99 703.61
  C 352.55 703.00 351.43 702.39 349.84 702.28
  C 332.26 701.00 316.42 695.50 300.37 688.07
  C 298.66 687.27 296.88 687.18 295.06 686.96
  Q 294.55 686.89 294.19 686.53
  C 292.02 684.28 289.18 684.22 286.94 683.01
  Q 271.48 674.66 256.24 671.50
  Q 241.99 668.54 237.80 667.58
  Q 237.21 667.45 237.24 668.04
  Q 237.27 668.88 238.23 669.30
  Q 241.26 670.62 244.21 671.87
  A 0.50 0.50 0.0 0 1 244.27 672.76
  Q 239.47 675.66 234.30 673.64
  Z
  M 239.26 635.35
  L 237.77 636.83
  A 0.36 0.36 0.0 0 0 238.05 637.45
  L 239.15 637.36
  A 2.11 2.10 78.6 0 0 240.98 634.59
  Q 238.16 626.16 229.15 625.59
  A 1.22 1.22 0.0 0 0 228.03 627.46
  Q 230.83 631.92 236.36 630.85
  A 0.83 0.83 0.0 0 1 237.21 631.22
  L 239.35 634.55
  Q 239.63 634.98 239.26 635.35
  Z
  M 217.08 633.69
  Q 215.67 641.49 215.98 649.42
  Q 215.99 649.93 216.43 649.66
  Q 222.79 645.59 230.10 643.68
  C 230.85 643.48 233.34 643.42 233.73 643.20
  Q 236.31 641.77 233.51 641.68
  Q 223.49 641.35 217.52 633.59
  Q 217.18 633.14 217.08 633.69
  Z
  M 264.18 639.13
  A 0.27 0.27 0.0 0 0 264.63 639.29
  C 265.52 638.43 265.59 636.12 264.30 635.59
  Q 263.76 635.36 263.82 635.95
  L 264.18 639.13
  Z
  M 231.60 653.63
  A 1.53 1.53 0.0 0 0 232.88 653.28
  L 237.38 649.40
  A 1.53 1.53 0.0 0 0 235.99 646.76
  L 228.09 648.82
  A 1.53 1.53 0.0 0 0 227.38 649.23
  L 226.40 650.23
  A 1.53 1.53 0.0 0 0 227.21 652.81
  L 231.60 653.63
  Z
  M 256.1997 658.0131
  A 2.80 0.51 100.5 0 0 257.2115 655.3529
  A 2.80 0.51 100.5 0 0 257.2203 652.5069
  A 2.80 0.51 100.5 0 0 256.2085 655.1671
  A 2.80 0.51 100.5 0 0 256.1997 658.0131
  Z
  M 226.6894 660.2626
  A 2.32 0.61 1.3 0 0 224.3838 659.6002
  A 2.32 0.61 1.3 0 0 222.0506 660.1574
  A 2.32 0.61 1.3 0 0 224.3562 660.8198
  A 2.32 0.61 1.3 0 0 226.6894 660.2626
  Z
  M 325.80 691.95
  C 322.80 690.84 319.95 689.94 317.18 688.51
  Q 309.47 684.54 301.48 681.17
  C 298.32 679.83 295.28 677.42 291.80 676.08
  A 0.21 0.20 70.2 0 0 291.63 676.45
  Q 294.40 678.08 296.27 680.69
  A 1.70 1.68 82.2 0 0 297.05 681.29
  C 306.03 684.75 315.04 689.94 325.01 692.53
  Q 325.24 692.59 325.43 692.56
  Q 325.71 692.51 325.84 692.43
  A 0.27 0.26 -50.2 0 0 325.80 691.95
  Z"
/>
<path fill="#f10502" d="
  M 298.27 633.76
  C 296.14 641.13 290.84 645.14 283.72 647.46
  A 0.82 0.82 0.0 0 0 283.49 648.91
  Q 289.13 653.05 292.92 659.07
  Q 294.19 661.08 298.47 663.30
  Q 299.16 663.66 298.71 664.29
  L 298.45 664.64
  A 0.79 0.79 0.0 0 1 297.27 664.76
  L 291.99 659.95
  A 0.92 0.91 -89.9 0 0 290.70 661.24
  L 293.63 664.52
  Q 293.97 664.90 293.63 665.27
  Q 291.18 667.90 287.45 665.59
  Q 278.68 660.15 272.40 654.04
  C 270.49 652.19 268.76 651.45 266.32 650.90
  A 0.56 0.56 0.0 0 1 266.16 649.87
  Q 268.99 648.23 270.23 645.20
  A 1.90 1.89 -67.7 0 1 272.71 644.16
  L 277.19 646.01
  Q 277.77 646.25 278.16 645.76
  Q 279.33 644.26 282.46 641.76
  Q 284.27 640.31 283.66 637.62
  Q 283.54 637.11 283.03 636.99
  L 275.88 635.19
  A 1.48 1.47 -60.4 0 1 275.20 632.71
  Q 276.66 631.25 279.08 630.40
  Q 283.18 628.97 286.78 626.55
  Q 287.22 626.26 287.74 626.26
  Q 294.47 626.38 297.93 632.01
  A 0.54 0.54 0.0 0 0 298.79 632.09
  C 301.30 629.38 302.65 625.36 307.34 624.61
  A 0.82 0.79 -28.0 0 1 308.03 624.81
  L 309.43 626.06
  A 0.83 0.81 -25.4 0 0 310.02 626.26
  Q 312.50 626.10 312.12 628.51
  Q 310.12 641.44 308.20 654.37
  A 0.42 0.42 0.0 0 1 307.46 654.57
  Q 305.82 652.52 305.33 650.01
  A 1.55 1.54 46.8 0 0 302.32 649.91
  Q 301.80 651.94 299.91 652.69
  A 0.63 0.63 0.0 0 1 299.05 652.11
  C 299.04 649.79 298.45 647.92 299.00 645.66
  Q 300.34 640.14 301.90 634.65
  A 0.75 0.74 -78.3 0 0 301.28 633.70
  L 298.85 633.38
  Q 298.40 633.32 298.27 633.76
  Z
  M 286.47 643.82
  C 289.61 642.61 292.04 636.92 289.37 634.15
  A 0.60 0.60 0.0 0 0 288.38 634.76
  Q 290.16 639.87 286.01 643.00
  A 0.48 0.47 15.9 0 0 286.47 643.82
  Z"
/>
<path fill="#000000" d="
  M 239.35 634.55
  L 237.21 631.22
  A 0.83 0.83 0.0 0 0 236.36 630.85
  Q 230.83 631.92 228.03 627.46
  A 1.22 1.22 0.0 0 1 229.15 625.59
  Q 238.16 626.16 240.98 634.59
  A 2.11 2.10 78.6 0 1 239.15 637.36
  L 238.05 637.45
  A 0.36 0.36 0.0 0 1 237.77 636.83
  L 239.26 635.35
  Q 239.63 634.98 239.35 634.55
  Z"
/>
<path fill="#f10502" d="
  M 158.43 656.39
  Q 155.37 656.61 158.30 657.52
  Q 163.58 659.15 169.52 660.79
  C 174.60 662.19 179.05 658.47 180.52 653.80
  C 181.85 649.52 179.64 647.39 175.71 646.35
  Q 169.48 644.71 163.47 647.64
  A 1.13 1.13 0.0 0 1 162.12 645.88
  Q 163.17 644.68 162.00 643.86
  A 1.22 1.22 0.0 0 1 162.16 641.77
  L 173.74 636.09
  A 0.88 0.86 79.2 0 0 174.23 635.35
  L 174.76 627.55
  A 1.05 1.04 -0.6 0 1 175.71 626.58
  Q 182.40 626.02 188.58 628.57
  A 1.54 1.54 0.0 0 1 189.34 630.74
  C 187.47 634.12 187.12 638.12 192.31 638.22
  A 1.14 1.12 -18.3 0 1 193.18 638.65
  C 195.12 641.14 198.59 643.85 199.00 646.80
  C 199.79 652.39 193.03 657.92 188.48 660.04
  C 185.13 661.61 181.58 661.37 177.85 661.59
  Q 177.15 661.63 176.86 662.31
  A 0.70 0.70 0.0 0 0 177.18 663.22
  L 192.27 671.02
  A 1.59 1.57 -33.1 0 0 193.10 671.19
  Q 197.93 670.84 203.49 673.80
  Q 212.36 678.52 221.30 683.13
  Q 231.72 688.50 247.24 691.75
  Q 250.49 692.43 260.14 692.00
  C 263.49 691.84 267.46 690.41 271.51 690.89
  A 0.14 0.14 0.0 0 1 271.51 691.16
  L 264.01 691.99
  A 1.33 1.32 -39.3 0 0 263.75 694.57
  L 266.51 695.45
  A 0.49 0.49 0.0 0 1 266.36 696.41
  Q 265.01 696.41 263.52 696.46
  Q 262.40 696.50 262.07 697.31
  A 0.47 0.47 0.0 0 0 262.44 697.96
  L 266.01 698.46
  Q 266.96 698.59 266.02 698.79
  C 253.14 701.63 240.66 698.72 227.91 695.42
  Q 221.99 693.88 215.36 690.82
  C 202.31 684.78 188.96 678.38 176.06 673.09
  C 159.63 666.36 148.54 662.52 133.69 660.97
  A 0.90 0.90 0.0 0 1 133.34 659.29
  Q 134.21 658.80 135.12 658.12
  C 136.49 657.10 136.87 655.30 138.79 654.83
  Q 148.28 652.46 158.23 655.37
  Q 159.64 655.78 160.52 656.48
  A 0.33 0.33 0.0 0 1 160.18 657.04
  Q 158.71 656.37 158.43 656.39
  Z
  M 182.3365 655.9927
  A 1.82 0.66 112.4 0 0 183.6402 654.5615
  A 1.82 0.66 112.4 0 0 183.7235 652.6273
  A 1.82 0.66 112.4 0 0 182.4198 654.0585
  A 1.82 0.66 112.4 0 0 182.3365 655.9927
  Z
  M 188.3826 656.3589
  A 2.76 0.77 -32.7 0 0 185.6440 657.2020
  A 2.76 0.77 -32.7 0 0 183.7374 659.3411
  A 2.76 0.77 -32.7 0 0 186.4760 658.4980
  A 2.76 0.77 -32.7 0 0 188.3826 656.3589
  Z
  M 188.7601 672.1527
  A 0.27 0.27 0.0 0 0 188.6196 671.7977
  L 170.7417 664.0613
  A 0.27 0.27 0.0 0 0 170.3867 664.2018
  L 170.2199 664.5873
  A 0.27 0.27 0.0 0 0 170.3604 664.9423
  L 188.2383 672.6787
  A 0.27 0.27 0.0 0 0 188.5933 672.5382
  L 188.7601 672.1527
  Z"
/>
<path fill="#000000" d="
  M 217.52 633.59
  Q 223.49 641.35 233.51 641.68
  Q 236.31 641.77 233.73 643.20
  C 233.34 643.42 230.85 643.48 230.10 643.68
  Q 222.79 645.59 216.43 649.66
  Q 215.99 649.93 215.98 649.42
  Q 215.67 641.49 217.08 633.69
  Q 217.18 633.14 217.52 633.59
  Z"
/>
<path fill="#000000" d="
  M 286.47 643.82
  A 0.48 0.47 15.9 0 1 286.01 643.00
  Q 290.16 639.87 288.38 634.76
  A 0.60 0.60 0.0 0 1 289.37 634.15
  C 292.04 636.92 289.61 642.61 286.47 643.82
  Z"
/>
<path fill="#000000" d="
  M 359.18 639.86
  L 356.62 639.17
  A 1.48 1.48 0.0 0 1 355.54 637.54
  L 355.70 636.40
  A 1.48 1.48 0.0 0 1 357.33 635.13
  L 358.44 635.25
  A 1.48 1.48 0.0 0 1 359.46 635.83
  L 360.75 637.54
  A 1.48 1.48 0.0 0 1 359.18 639.86
  Z"
/>
<path fill="#000000" d="
  M 264.18 639.13
  L 263.82 635.95
  Q 263.76 635.36 264.30 635.59
  C 265.59 636.12 265.52 638.43 264.63 639.29
  A 0.27 0.27 0.0 0 1 264.18 639.13
  Z"
/>
<path fill="#000000" d="
  M 231.60 653.63
  L 227.21 652.81
  A 1.53 1.53 0.0 0 1 226.40 650.23
  L 227.38 649.23
  A 1.53 1.53 0.0 0 1 228.09 648.82
  L 235.99 646.76
  A 1.53 1.53 0.0 0 1 237.38 649.40
  L 232.88 653.28
  A 1.53 1.53 0.0 0 1 231.60 653.63
  Z"
/>
<ellipse fill="#000000" cx="0.00" cy="0.00" transform="translate(183.03,654.31) rotate(112.4)" rx="1.82" ry="0.66"/>
<ellipse fill="#000000" cx="0.00" cy="0.00" transform="translate(256.71,655.26) rotate(100.5)" rx="2.80" ry="0.51"/>
<ellipse fill="#000000" cx="0.00" cy="0.00" transform="translate(186.06,657.85) rotate(-32.7)" rx="2.76" ry="0.77"/>
<ellipse fill="#000000" cx="0.00" cy="0.00" transform="translate(224.37,660.21) rotate(1.3)" rx="2.32" ry="0.61"/>
<rect fill="#000000" x="-10.01" y="-0.48" transform="translate(179.49,668.37) rotate(23.4)" width="20.02" height="0.96" rx="0.27"/>
<path fill="#f10502" d="
  M 418.84 669.44
  C 423.88 675.06 424.46 682.80 420.45 689.24
  C 415.55 697.10 408.13 699.37 399.61 701.89
  Q 394.61 703.37 399.15 700.81
  C 400.80 699.87 404.55 699.95 406.84 699.04
  C 419.31 694.05 423.04 682.07 418.21 669.83
  A 0.38 0.38 0.0 0 1 418.84 669.44
  Z"
/>
<path fill="#000000" d="
  M 325.80 691.95
  A 0.27 0.26 -50.2 0 1 325.84 692.43
  Q 325.71 692.51 325.43 692.56
  Q 325.24 692.59 325.01 692.53
  C 315.04 689.94 306.03 684.75 297.05 681.29
  A 1.70 1.68 82.2 0 1 296.27 680.69
  Q 294.40 678.08 291.63 676.45
  A 0.21 0.20 70.2 0 1 291.80 676.08
  C 295.28 677.42 298.32 679.83 301.48 681.17
  Q 309.47 684.54 317.18 688.51
  C 319.95 689.94 322.80 690.84 325.80 691.95
  Z"
/>
<ellipse fill="#e86514" cx="0.00" cy="0.00" transform="translate(288.14,691.26) rotate(-29.5)" rx="5.21" ry="0.40"/>
<ellipse fill="#e86514" cx="0.00" cy="0.00" transform="translate(360.70,703.97) rotate(-7.5)" rx="1.73" ry="0.49"/>
<path fill="#e86514" d="
  M 368.07 703.39
  C 369.42 703.25 372.08 703.47 373.37 703.84
  A 0.02 0.01 -30.1 0 1 373.36 703.87
  Q 370.53 703.49 368.10 703.69
  A 0.15 0.15 0.0 0 1 368.07 703.39
  Z"
/>
<ellipse fill="#f10502" cx="0.00" cy="0.00" transform="translate(379.22,704.57) rotate(-11.5)" rx="2.04" ry="0.61"/>
</svg>
